<svg width="24" height="24" viewBox="0 0 24 24" fill="none" xmlns="http://www.w3.org/2000/svg">
<path d="M5.81128 5.04444C6.12688 3.93872 7.16092 3.10587 8.29496 3.01158C8.65808 2.97944 9.02617 3.01444 9.37723 3.11372C9.91837 3.26229 10.4645 3.39587 11.0042 3.55229C8.80986 3.85944 6.75099 5.02087 5.35596 6.75587C5.5056 6.18444 5.65525 5.61372 5.81128 5.04444Z" fill="#5D6C7E"/>
<path d="M11.0325 4.32764C12.6715 4.07121 14.3885 4.32978 15.8736 5.0755C17.5545 5.90907 18.9289 7.35335 19.6729 9.08621C20.4261 10.8119 20.536 12.8084 19.9871 14.6091C19.4112 16.5369 18.0772 18.2141 16.3488 19.2205C14.7885 20.1419 12.914 20.4998 11.1254 20.2391C9.16014 19.9641 7.31334 18.9198 6.05518 17.3741C4.85022 15.9176 4.18922 14.0184 4.23461 12.1226C4.26157 10.2198 5.00057 8.3405 6.26795 6.9305C7.4949 5.54335 9.20908 4.60693 11.0325 4.32764ZM9.5878 6.42121C9.22965 6.48407 8.88638 6.63264 8.59631 6.85335C7.71405 7.49192 7.42185 8.80192 7.95518 9.75692C8.47078 10.7784 9.79419 11.2584 10.8403 10.8105C11.8991 10.4105 12.5332 9.14478 12.1906 8.05264C11.8984 6.9455 10.7027 6.2005 9.5878 6.42121ZM15.2906 7.54335C14.8296 7.63978 14.397 7.87907 14.075 8.22621C13.3587 8.96335 13.2509 10.2019 13.8339 11.0519C14.4417 12.0212 15.8055 12.3748 16.8062 11.8312C17.7658 11.3591 18.2828 10.1562 17.9502 9.1305C17.6389 8.0155 16.4105 7.28835 15.2906 7.54335ZM11.8772 11.3812C11.4027 11.5498 11.1105 12.1062 11.2531 12.5955C11.3871 13.1476 12.0289 13.4976 12.5601 13.2991C13.0956 13.1391 13.4077 12.4869 13.1892 11.9669C13.0048 11.4548 12.3779 11.1741 11.8772 11.3812ZM8.26085 12.5334C7.78922 12.6484 7.35802 12.9198 7.04667 13.2941C6.35376 14.0926 6.34171 15.3812 7.0183 16.1934C7.67788 17.0484 8.95802 17.3098 9.89631 16.7833C10.8708 16.2876 11.3665 15.0312 10.9772 14.0005C10.6176 12.9048 9.36511 12.2348 8.26085 12.5334ZM13.9339 13.6698C13.5374 13.7855 13.1743 14.0126 12.8921 14.3162C12.1566 15.0848 12.0807 16.3812 12.7289 17.2269C13.3679 18.1362 14.6913 18.4369 15.6587 17.8976C16.653 17.3976 17.1445 16.1098 16.7311 15.0684C16.3445 13.9626 15.0431 13.3148 13.9339 13.6698Z" fill="#5D6C7E"/>
<path d="M17.5867 5.2959C18.1803 5.44733 18.7718 5.61018 19.3647 5.76447C19.7931 5.87304 20.2016 6.07161 20.5399 6.36018C21.3285 7.0109 21.7193 8.10733 21.5108 9.11447C21.3462 9.81876 21.1292 10.5095 20.9711 11.2152C20.681 8.8909 19.4406 6.71161 17.5867 5.2959Z" fill="#5D6C7E"/>
<path d="M3.49932 13.6567C3.72485 14.806 4.1057 15.9339 4.73832 16.9239C5.27875 17.7946 5.97662 18.5617 6.77378 19.2003C6.21634 19.0667 5.66456 18.9075 5.10924 18.7646C4.32768 18.5525 3.64896 17.9917 3.29435 17.2589C3.02272 16.7132 2.9362 16.0775 3.04683 15.4782C3.17449 14.8653 3.38797 14.2732 3.49932 13.6567Z" fill="#5D6C7E"/>
<path d="M13.5081 20.9852C15.7783 20.6616 17.901 19.3995 19.2712 17.5474C19.1229 18.1716 18.9449 18.7874 18.7847 19.4088C18.5925 20.1481 18.0939 20.7995 17.4315 21.1731C16.7754 21.5538 15.969 21.6531 15.2393 21.4516C14.6627 21.2952 14.0818 21.1531 13.5081 20.9852Z" fill="#5D6C7E"/>
</svg>
