<svg width="24" height="24" viewBox="0 0 24 24" fill="none" xmlns="http://www.w3.org/2000/svg">
<path d="M11.5209 21.9895C10.687 21.9481 9.86132 21.8042 9.06254 21.5612C8.97009 21.5265 8.87673 21.4942 8.78254 21.4645C6.11338 20.5862 3.85005 18.4695 2.76089 15.8328C2.31429 14.7569 2.06042 13.6108 2.01089 12.4469C2.00422 12.3144 2.00089 10.5386 2.00006 7.61688C2.00006 2.59183 1.99589 2.94767 2.05839 2.75266C2.19172 2.32849 2.56089 2.04182 3.02005 2.00432C3.37089 1.97599 3.60339 2.07766 4.35588 2.58683C4.82422 2.9035 5.28838 3.23684 5.85255 3.66101C6.11505 3.85851 6.14671 3.87851 6.16588 3.86684L6.45754 3.67518C6.94088 3.35767 7.38254 3.111 7.87421 2.88767C8.59772 2.56047 9.35787 2.32126 10.1384 2.17516C10.699 2.06766 11.2683 2.01187 11.8392 2.00849C12.7892 1.99516 13.57 2.08432 14.4659 2.30849C17.4242 3.0485 19.9142 5.15102 21.1558 7.95856C21.5658 8.88607 21.86 9.98358 21.9433 10.8936C21.9708 11.1986 21.9758 11.2519 21.9875 11.4028C21.9942 11.4903 22 11.7411 22 11.9603C22 12.6128 21.9458 13.2686 21.8592 13.6803C21.8446 13.7522 21.8319 13.8244 21.8208 13.897C21.7742 14.212 21.6425 14.7195 21.4883 15.1761C21.3175 15.687 21.1825 16.0086 20.9183 16.537C20.3698 17.6164 19.6291 18.5867 18.7325 19.4003C18.3658 19.7304 18.0417 19.9879 17.6825 20.2362C17.1433 20.607 16.5933 20.9129 15.9834 21.1812C15.4834 21.402 14.7834 21.6304 14.2325 21.7529C13.9085 21.8265 13.5809 21.8827 13.2509 21.9212C12.6772 21.9928 12.0984 22.0157 11.5209 21.9895ZM11.0125 17.0562C11.2575 17.0062 11.5775 16.882 11.7325 16.7753C11.8525 16.6928 12.0892 16.462 13.4525 15.0978C13.9388 14.6071 14.4288 14.1201 14.9225 13.637C14.9367 13.637 16.3283 12.2453 16.3283 12.2294C16.3283 12.2128 17.695 10.8561 17.7125 10.8561C17.7208 10.8561 17.765 10.8169 17.8108 10.7678C18.2 10.3552 18.3792 9.97024 18.4075 9.47857C18.4292 9.11773 18.3575 8.72106 18.2267 8.48189C18.0398 8.1257 17.7558 7.82981 17.4075 7.62855C17.1733 7.49272 16.9808 7.43438 16.6675 7.40355C16.4125 7.37772 16.0942 7.40355 15.8775 7.46605C15.675 7.52438 15.375 7.69439 15.1667 7.86689C15.1317 7.89605 14.1009 8.92107 12.8767 10.1444L10.6509 12.3694L9.74004 11.4611C9.24004 10.9611 8.80671 10.5328 8.77754 10.5094C8.45728 10.2585 8.06858 10.1103 7.66254 10.0844C7.32588 10.0736 6.90421 10.1594 6.64254 10.2927C6.43904 10.4112 6.25402 10.5589 6.09338 10.7311C6.00338 10.8311 5.85421 11.0286 5.85171 11.0519C5.84921 11.0769 5.84421 11.0886 5.79755 11.1853C5.68421 11.4226 5.62068 11.6807 5.61088 11.9436C5.60171 12.1344 5.60255 12.1644 5.62671 12.3528C5.66421 12.6469 5.82671 13.0036 6.05171 13.2819C6.09338 13.3344 6.86004 14.1086 7.75504 15.002C9.01087 16.2561 9.40504 16.6437 9.48337 16.7012C9.75587 16.9012 10.0525 17.0245 10.4009 17.0812C10.5525 17.1062 10.8175 17.0945 11.0125 17.0562Z" fill="#5D6C7E"/>
</svg>
