<svg width="24" height="25" viewBox="0 0 24 25" fill="none" xmlns="http://www.w3.org/2000/svg">
<g id="Calling - Iconly Pro">
<g id="Iconly/Light-Outline/Calling">
<g id="Calling">
<path id="Combined-Shape" fill-rule="evenodd" clip-rule="evenodd" d="M17.3423 2.49859C16.2253 2.51359 15.4293 3.35059 14.4223 4.40959C14.1733 4.67059 13.9043 4.95559 13.6033 5.25559C12.1443 6.71559 12.5593 7.90659 12.8943 8.86259C13.2583 9.90559 13.5733 10.8056 11.6873 12.6916C9.80134 14.5776 8.90234 14.2626 7.86034 13.8956C6.90334 13.5616 5.71534 13.1436 4.25334 14.6036C3.95634 14.9006 3.67634 15.1666 3.41634 15.4136C2.35334 16.4256 1.51334 17.2246 1.49919 18.3446C1.48834 19.2986 2.06834 20.2726 3.50034 21.7046L4.13434 21.2746L3.59734 21.7976C3.91434 22.1226 4.75734 22.9886 6.40834 22.9986H6.43834C8.93034 22.9986 12.1793 21.0146 16.0953 17.0996C20.0273 13.1686 22.0143 9.90959 21.9994 7.41259C21.9903 5.76259 21.1253 4.91759 20.8003 4.60059L20.7726 4.57029L20.7053 4.50259C19.2703 3.06759 18.2843 2.47759 17.3423 2.49859ZM17.3613 3.99859H17.3693C17.8184 3.99859 18.5004 4.44859 19.4515 5.37248L19.6425 5.56005L19.6403 5.55959C19.6403 5.55959 19.6567 5.57831 19.6845 5.60668L19.7513 5.67359C19.9933 5.90859 20.4943 6.39759 20.4994 7.42059C20.5073 8.85159 19.5663 11.5086 15.0353 16.0386C10.5263 20.5466 7.87334 21.4986 6.43834 21.4986H6.41734C5.39434 21.4926 4.90634 20.9916 4.67134 20.7506C4.60034 20.6776 4.54234 20.6226 4.50134 20.5896C3.50434 19.5866 2.99434 18.8416 2.99931 18.3626C3.00534 17.8746 3.61234 17.2986 4.45134 16.4996C4.71834 16.2466 5.00834 15.9696 5.31434 15.6636C6.10834 14.8726 6.49934 15.0076 7.36434 15.3116C8.55934 15.7306 10.1963 16.3046 12.7473 13.7516C15.2993 11.2006 14.7273 9.56359 14.3103 8.36759C14.0083 7.50359 13.8703 7.11059 14.6633 6.31659C14.9733 6.00659 15.2523 5.71259 15.5093 5.44259C16.3033 4.60859 16.8763 4.00559 17.3613 3.99859ZM8.75324 6.05609C6.67224 6.46009 5.06524 8.06609 4.66024 10.1481C4.58124 10.5561 4.84624 10.9491 5.25224 11.0281C5.30124 11.0371 5.34924 11.0421 5.39724 11.0421C5.74924 11.0421 6.06224 10.7941 6.13224 10.4361C6.42024 8.95609 7.56124 7.81509 9.03924 7.52809C9.44624 7.44909 9.71124 7.05609 9.63224 6.64909C9.55324 6.24209 9.15324 5.97609 8.75324 6.05609ZM8.81314 2.50429C4.73514 2.95729 1.56814 6.12029 1.11114 10.1973C1.06514 10.6093 1.36115 10.9803 1.77214 11.0263C1.80014 11.0293 1.82914 11.0313 1.85714 11.0313C2.23414 11.0313 2.55814 10.7483 2.60114 10.3653C2.98014 6.98929 5.60214 4.36929 8.97914 3.99429C9.39014 3.94829 9.68714 3.57829 9.64114 3.16629C9.59614 2.75529 9.22914 2.45229 8.81314 2.50429Z" fill="#5D6C7E"/>
</g>
</g>
</g>
</svg>
