<svg width="24" height="25" viewBox="0 0 24 25" fill="none" xmlns="http://www.w3.org/2000/svg">
<g id="Message">
<path id="Vector" d="M11.777 13.9628C11.108 13.9628 10.441 13.7418 9.88298 13.2998L5.39798 9.6838C5.07498 9.4238 5.02497 8.95079 5.28398 8.6288C5.54498 8.3078 6.01698 8.2568 6.33897 8.51581L10.82 12.1278C11.383 12.5738 12.176 12.5738 12.743 12.1238L17.179 8.5178C17.501 8.25481 17.973 8.3048 18.235 8.62681C18.496 8.94781 18.447 9.41982 18.126 9.6818L13.682 13.2938C13.12 13.7397 12.448 13.9628 11.777 13.9628H11.777ZM6.83901 20.498H16.659C16.661 20.4961 16.669 20.498 16.675 20.498C17.816 20.498 18.828 20.09 19.604 19.315C20.505 18.418 21 17.129 21 15.686V8.81804C21 6.02504 19.174 3.99805 16.659 3.99805H6.84105C4.32604 3.99805 2.50005 6.02504 2.50005 8.81804V15.686C2.50005 17.129 2.99605 18.418 3.89605 19.315C4.67205 20.09 5.68506 20.498 6.82506 20.498H6.83906H6.83901ZM6.82202 21.998C5.27901 21.998 3.90102 21.4381 2.83701 20.378C1.65201 19.196 1 17.53 1 15.686V8.81804C1 5.21504 3.511 2.49805 6.841 2.49805H16.659C19.989 2.49805 22.5 5.21504 22.5 8.81804V15.686C22.5 17.53 21.848 19.196 20.663 20.378C19.6 21.437 18.221 21.998 16.675 21.998H6.82197H6.82202Z" fill="#5D6C7E"/>
</g>
</svg>
