<svg width="24" height="24" viewBox="0 0 24 24" fill="none" xmlns="http://www.w3.org/2000/svg">
<path fill-rule="evenodd" clip-rule="evenodd" d="M12.0009 2.3335C9.28508 2.3335 8.94424 2.34537 7.87756 2.39391C6.81297 2.44266 6.08629 2.6112 5.45045 2.8585C4.79274 3.11391 4.23482 3.45558 3.67898 4.01162C3.12272 4.56745 2.78105 5.12537 2.5248 5.78287C2.27688 6.41891 2.10813 7.14579 2.06021 8.20995C2.0125 9.27662 2 9.61766 2 12.3335C2 15.0493 2.01208 15.3891 2.06042 16.4558C2.10938 17.5204 2.27792 18.247 2.52501 18.8829C2.78063 19.5406 3.1223 20.0985 3.67835 20.6543C4.23398 21.2106 4.7919 21.5531 5.4492 21.8085C6.08546 22.0558 6.81234 22.2243 7.87673 22.2731C8.94341 22.3216 9.28404 22.3335 11.9997 22.3335C14.7158 22.3335 15.0556 22.3216 16.1222 22.2731C17.1868 22.2243 17.9143 22.0558 18.5506 21.8085C19.2081 21.5531 19.7652 21.2106 20.3208 20.6543C20.8771 20.0985 21.2187 19.5406 21.475 18.8831C21.7208 18.247 21.8896 17.5202 21.9396 16.456C21.9875 15.3893 22 15.0493 22 12.3335C22 9.61766 21.9875 9.27683 21.9396 8.21016C21.8896 7.14558 21.7208 6.41891 21.475 5.78308C21.2187 5.12537 20.8771 4.56745 20.3208 4.01162C19.7646 3.45537 19.2083 3.1137 18.55 2.8585C17.9125 2.6112 17.1854 2.44266 16.1208 2.39391C15.0541 2.34537 14.7145 2.3335 11.9978 2.3335H12.0009ZM11.1038 4.13555C11.3701 4.13513 11.6671 4.13555 12.0009 4.13555C14.6709 4.13555 14.9874 4.14513 16.0418 4.19305C17.0168 4.23763 17.546 4.40055 17.8985 4.53743C18.3651 4.71868 18.6978 4.93534 19.0476 5.28534C19.3976 5.63534 19.6143 5.96868 19.796 6.43534C19.9329 6.78743 20.096 7.31659 20.1404 8.29159C20.1883 9.34576 20.1987 9.66243 20.1987 12.3312C20.1987 14.9999 20.1883 15.3166 20.1404 16.3708C20.0958 17.3458 19.9329 17.8749 19.796 18.227C19.6147 18.6937 19.3976 19.026 19.0476 19.3758C18.6976 19.7258 18.3653 19.9424 17.8985 20.1237C17.5464 20.2612 17.0168 20.4237 16.0418 20.4683C14.9876 20.5162 14.6709 20.5266 12.0009 20.5266C9.33066 20.5266 9.0142 20.5162 7.96002 20.4683C6.98501 20.4233 6.45584 20.2603 6.10313 20.1235C5.63645 19.9422 5.30312 19.7256 4.95311 19.3756C4.60311 19.0256 4.38644 18.6931 4.20477 18.2262C4.0679 17.8741 3.90477 17.3449 3.86039 16.3699C3.81248 15.3158 3.80289 14.9991 3.80289 12.3287C3.80289 9.65826 3.81248 9.34326 3.86039 8.28909C3.90498 7.31409 4.0679 6.78493 4.20477 6.43243C4.38602 5.96576 4.60311 5.63243 4.95311 5.28243C5.30312 4.93243 5.63645 4.71576 6.10313 4.53409C6.45563 4.39659 6.98501 4.23409 7.96002 4.1893C8.88253 4.14763 9.24003 4.13513 11.1038 4.13305V4.13555ZM17.3389 5.79597C16.6764 5.79597 16.1389 6.33285 16.1389 6.99556C16.1389 7.65806 16.6764 8.19556 17.3389 8.19556C18.0014 8.19556 18.5389 7.65806 18.5389 6.99556C18.5389 6.33306 18.0014 5.79597 17.3389 5.79597ZM12.001 7.19805C9.16488 7.19805 6.86548 9.49743 6.86548 12.3335C6.86548 15.1695 9.16488 17.4678 12.001 17.4678C14.837 17.4678 17.1356 15.1695 17.1356 12.3335C17.1356 9.49743 14.837 7.19805 12.001 7.19805ZM12.0009 9.00013C13.8418 9.00013 15.3343 10.4924 15.3343 12.3335C15.3343 14.1743 13.8418 15.6668 12.0009 15.6668C10.1599 15.6668 8.66755 14.1743 8.66755 12.3335C8.66755 10.4924 10.1599 9.00013 12.0009 9.00013Z" fill="#5D6C7E"/>
</svg>
