<svg width="114" height="16" viewBox="0 0 114 16" fill="none" xmlns="http://www.w3.org/2000/svg">
<path d="M3.72921 0.400696H0.709961V15.5401H3.72921V0.400696Z" fill="#F3F5F7"/>
<path d="M12.7542 15.5418L7.42289 7.97203L12.7596 0.396851H9.06035L3.72363 7.97203L9.05491 15.5418H12.7542Z" fill="#F3F5F7"/>
<path d="M34.9832 3.45211C37.4693 3.45211 39.493 5.48089 39.493 7.97323C39.493 10.4656 37.4693 12.4943 34.9832 12.4943C32.4971 12.4943 30.4733 10.4656 30.4733 7.97323C30.4733 5.48089 32.4971 3.45211 34.9832 3.45211ZM34.9832 0.419861C30.8269 0.419861 27.4541 3.80115 27.4541 7.96777C27.4541 12.1344 30.8269 15.5157 34.9832 15.5157C39.1394 15.5157 42.5122 12.1398 42.5122 7.97323C42.5122 3.8066 39.1448 0.419861 34.9832 0.419861Z" fill="#F3F5F7"/>
<path d="M81.0701 3.45211C83.5562 3.45211 85.5799 5.48089 85.5799 7.97323C85.5799 10.4656 83.5562 12.4943 81.0701 12.4943C78.584 12.4943 76.5603 10.4656 76.5603 7.97323C76.5603 5.48089 78.584 3.45211 81.0701 3.45211ZM81.0701 0.419861C76.9139 0.419861 73.541 3.80115 73.541 7.96777C73.541 12.1344 76.9139 15.5157 81.0701 15.5157C85.2263 15.5157 88.5992 12.1344 88.5992 7.96777C88.5992 3.80115 85.2263 0.419861 81.0701 0.419861Z" fill="#F3F5F7"/>
<path d="M51.2925 0.419861H43.8287L43.8232 15.5157H46.8262H46.8425V12.4889L46.8479 3.44666H51.2925C53.7786 3.44666 55.8023 5.47544 55.8023 7.96777C55.8023 10.4601 53.7786 12.4889 51.2925 12.4889H46.8479L49.8672 15.5157H51.287C55.4378 15.5157 58.8161 12.1289 58.8161 7.96777C58.8215 3.80661 55.4433 0.419861 51.2925 0.419861Z" fill="#F3F5F7"/>
<path d="M23.1286 0.396851V6.4559H17.0847V0.396851H14.0654V6.4559V9.48271V15.5418H17.0847V9.48271H17.0901V6.4559L20.1094 9.48271H23.1286V15.5418H26.1478V9.48271V6.4559V0.396851H23.1286Z" fill="#F3F5F7"/>
<path d="M67.2154 7.9571H63.4237L68.755 15.6032H72.4324L68.9889 10.6676C70.9799 9.93679 72.4052 8.01709 72.4052 5.77017C72.4052 2.89607 70.0769 0.56189 67.21 0.56189H60.3555V15.6032H63.3693V3.58324H67.2154C68.4177 3.58324 69.3969 4.5649 69.3969 5.77017C69.3969 6.97543 68.4177 7.9571 67.2154 7.9571Z" fill="#F3F5F7"/>
<path d="M97.8223 6.43103H100.831V9.44692L97.8223 6.43103Z" fill="#FF9533"/>
<path d="M102.663 9.46593H94.7474L99.2899 0.423706H95.9225L91.2168 9.7877V12.4927H97.8265V15.5141H100.846V12.4927H102.663V9.46593Z" fill="#FF9533"/>
<path d="M105.285 0.42916L113.983 0.423706L113.989 3.45596H104.871L105.285 0.42916Z" fill="#FF9533"/>
<path d="M108.908 5.31955C108.897 5.31955 108.228 5.30319 107.907 5.30864C107.989 4.6651 108.048 4.10883 108.114 3.45984C106.971 3.96158 105.829 4.46877 104.686 4.97051C104.529 6.03398 104.393 6.99383 104.229 8.06276C104.344 8.06821 105.198 8.0573 106.58 8.0573C107.64 8.0573 108.413 8.11729 109.011 8.22637C110.192 8.44451 111.008 9.29529 111.008 10.4188C111.008 11.5804 110.067 12.5239 108.908 12.5239C108.135 12.5239 107.466 12.0985 107.102 11.4713L104.268 12.4802C105.056 14.2691 106.835 15.518 108.913 15.518C111.72 15.518 114 13.2383 114 10.4188C113.989 7.59919 111.715 5.31955 108.908 5.31955Z" fill="#FF9533"/>
</svg>
