<svg width="24" height="24" viewBox="0 0 24 24" fill="none" xmlns="http://www.w3.org/2000/svg">
<path d="M6.82259 5.01357C6.79477 3.7507 5.89169 2.78882 4.42521 2.78882C2.95873 2.78882 2 3.7507 2 5.01357C2 6.25028 2.9304 7.23986 4.36956 7.23986H4.39696C5.89169 7.23986 6.82259 6.25028 6.82259 5.01357Z" fill="#5D6C7E"/>
<path d="M6.54026 8.99793H2.25349V21.8779H6.54026V8.99793Z" fill="#5D6C7E"/>
<path d="M17.0643 8.69544C19.8852 8.69544 22 10.5367 22 14.4929L21.9998 21.8778H17.7132V14.9871C17.7132 13.2562 17.0929 12.0752 15.5411 12.0752C14.3568 12.0752 13.6514 12.8714 13.3415 13.6404C13.2282 13.916 13.2004 14.3 13.2004 14.685V21.8782H8.91309C8.91309 21.8782 8.96959 10.2068 8.91309 8.99823H13.2004V10.8226C13.7693 9.94557 14.7883 8.69544 17.0643 8.69544Z" fill="#5D6C7E"/>
</svg>
