<svg width="24" height="25" viewBox="0 0 24 25" fill="none" xmlns="http://www.w3.org/2000/svg">
<g id="Location - Iconly Pro">
<g id="Iconly/Light-Outline/Location">
<g id="Location">
<path id="Combined-Shape" fill-rule="evenodd" clip-rule="evenodd" d="M12.2495 2.49805C16.7985 2.49805 20.4995 6.22705 20.4995 10.811C20.4995 16.446 14.0435 21.998 12.2495 21.998C10.4555 21.998 3.99951 16.446 3.99951 10.811C3.99951 6.22705 7.70051 2.49805 12.2495 2.49805ZM12.2495 3.99805C8.52751 3.99805 5.49951 7.05505 5.49951 10.811C5.49951 15.59 11.1235 20.246 12.2495 20.494C13.3755 20.245 18.9995 15.589 18.9995 10.811C18.9995 7.05505 15.9715 3.99805 12.2495 3.99805ZM12.2505 7.49805C14.0425 7.49805 15.5005 8.95605 15.5005 10.749C15.5005 12.541 14.0425 13.998 12.2505 13.998C10.4585 13.998 9.00051 12.541 9.00051 10.749C9.00051 8.95605 10.4585 7.49805 12.2505 7.49805ZM12.2505 8.99805C11.2855 8.99805 10.5005 9.78305 10.5005 10.749C10.5005 11.714 11.2855 12.498 12.2505 12.498C13.2155 12.498 14.0005 11.714 14.0005 10.749C14.0005 9.78305 13.2155 8.99805 12.2505 8.99805Z" fill="#5D6C7E"/>
</g>
</g>
</g>
</svg>
