<svg width="24" height="24" viewBox="0 0 24 24" fill="none" xmlns="http://www.w3.org/2000/svg">
<g clip-path="url(#clip0_15961_2271)">
<path d="M12.9999 0.666714C13.0204 0.678591 13.0409 0.690468 13.062 0.702705C13.1718 0.766438 13.2814 0.830521 13.3909 0.894752C13.5414 0.98285 13.6928 1.06929 13.8443 1.1556C14.0604 1.2787 14.2756 1.40302 14.4903 1.52857C14.7241 1.66533 14.9589 1.80057 15.1936 1.9358C15.3142 2.00531 15.4348 2.0749 15.5554 2.14449C15.6036 2.17227 15.6517 2.20005 15.6999 2.22782C17.5777 3.31116 17.5777 3.31116 19.4554 4.39449C19.4793 4.40824 19.5031 4.42199 19.5277 4.43616C19.5758 4.46392 19.6239 4.49168 19.672 4.51944C19.7929 4.5892 19.9138 4.65893 20.0348 4.72861C20.2888 4.87496 20.5425 5.02174 20.7954 5.17008C20.9167 5.24112 21.0387 5.31099 21.1614 5.37965C21.6434 5.64967 22.0764 5.89605 22.2567 6.45516C22.3076 6.64608 22.2981 6.841 22.2975 7.03706C22.2976 7.08156 22.2978 7.12607 22.2979 7.17058C22.2983 7.29248 22.2983 7.41437 22.2981 7.53627C22.2981 7.6679 22.2984 7.79952 22.2987 7.93115C22.2991 8.18888 22.2992 8.4466 22.2992 8.70433C22.2992 8.91387 22.2993 9.12342 22.2994 9.33296C22.2994 9.3631 22.2995 9.39324 22.2995 9.42338C22.2995 9.43834 22.2995 9.4533 22.2995 9.46872C22.2995 9.48371 22.2995 9.4987 22.2996 9.51414C22.2996 9.52916 22.2996 9.54417 22.2996 9.55964C22.2999 9.98181 22.3001 10.404 22.3 10.8261C22.3 10.842 22.3 10.8579 22.3 10.8743C22.3 10.9549 22.2999 11.0356 22.2999 11.1162C22.2999 11.1322 22.2999 11.1482 22.2999 11.1647C22.2999 11.197 22.2999 11.2294 22.2999 11.2618C22.2998 11.7653 22.3001 12.2689 22.3008 12.7724C22.3016 13.3386 22.302 13.9048 22.3019 14.471C22.3019 14.5314 22.3019 14.5918 22.3019 14.6523C22.3019 14.6671 22.3019 14.682 22.3019 14.6974C22.3019 14.9215 22.3021 15.1457 22.3026 15.3698C22.303 15.6249 22.3031 15.88 22.3027 16.1351C22.3025 16.2652 22.3025 16.3952 22.3029 16.5253C22.3033 16.6445 22.3032 16.7638 22.3027 16.883C22.3026 16.926 22.3027 16.969 22.303 17.0119C22.3055 17.3817 22.2513 17.6962 22.0221 18C22.0108 18.0157 21.9994 18.0313 21.9877 18.0474C21.8114 18.2701 21.5282 18.411 21.2846 18.5473C21.2575 18.5626 21.2304 18.5779 21.2033 18.5932C21.1617 18.6168 21.12 18.6404 21.0784 18.6639C20.9387 18.7427 20.7998 18.8226 20.661 18.9028C20.6372 18.9165 20.6135 18.9302 20.589 18.9444C20.4074 19.0493 20.2262 19.155 20.0451 19.2608C19.8104 19.3978 19.575 19.5335 19.3395 19.6691C19.2188 19.7386 19.0983 19.8082 18.9777 19.8778C18.9295 19.9056 18.8814 19.9334 18.8332 19.9612C18.7975 19.9818 18.7975 19.9818 18.761 20.0028C15.0777 22.1278 15.0777 22.1278 15.0054 22.1695C14.9573 22.1973 14.9092 22.225 14.8611 22.2528C14.7402 22.3225 14.6193 22.3923 14.4983 22.4619C14.2661 22.5958 14.034 22.73 13.8027 22.8653C13.5538 23.0108 13.3039 23.1543 13.0533 23.2967C12.9694 23.3444 12.8858 23.3925 12.8027 23.4416C12.4303 23.6612 12.0792 23.7149 11.6502 23.6552C11.4182 23.5942 11.2057 23.453 10.9999 23.3334C10.9794 23.3215 10.9589 23.3096 10.9378 23.2974C10.828 23.2337 10.7184 23.1696 10.6089 23.1053C10.4584 23.0172 10.307 22.9308 10.1554 22.8445C9.9394 22.7214 9.72413 22.5971 9.50951 22.4715C9.27564 22.3348 9.04091 22.1995 8.80615 22.0643C8.68551 21.9948 8.56492 21.9252 8.44433 21.8556C8.39618 21.8278 8.34803 21.8 8.29988 21.7723C7.43321 21.2723 6.56655 20.7723 5.69988 20.2723C5.67604 20.2585 5.65221 20.2448 5.62765 20.2306C5.57953 20.2028 5.53142 20.1751 5.48331 20.1473C5.36241 20.0776 5.24149 20.0078 5.12054 19.9382C4.88828 19.8043 4.65626 19.6701 4.42488 19.5348C4.23204 19.422 4.03841 19.3107 3.84432 19.2C3.62855 19.0771 3.41345 18.953 3.19918 18.8275C3.08181 18.7587 2.96417 18.6906 2.84606 18.6231C2.82002 18.6082 2.79398 18.5933 2.76795 18.5784C2.71866 18.5503 2.66932 18.5222 2.61992 18.4942C2.47415 18.4108 2.3357 18.321 2.19988 18.2223C2.17696 18.2058 2.15405 18.1893 2.13044 18.1723C1.90271 17.9544 1.71609 17.6302 1.70534 17.3091C1.70508 17.2763 1.70505 17.2434 1.70521 17.2105C1.70513 17.1922 1.70504 17.1738 1.70496 17.1549C1.70473 17.0936 1.70481 17.0324 1.7049 16.9711C1.7048 16.9266 1.70468 16.8822 1.70455 16.8377C1.70423 16.7157 1.70419 16.5936 1.7042 16.4716C1.70417 16.3399 1.70388 16.2082 1.70362 16.0765C1.70314 15.8036 1.70295 15.5307 1.70284 15.2578C1.70284 15.243 1.70283 15.2282 1.70283 15.2129C1.70282 15.198 1.70281 15.1832 1.70281 15.1679C1.70274 15.0031 1.7026 14.8383 1.70245 14.6735C1.70201 14.1755 1.70165 13.6774 1.70158 13.1794C1.70158 13.1635 1.70158 13.1476 1.70158 13.1312C1.70157 13.0667 1.70156 13.0021 1.70155 12.9376C1.70155 12.889 1.70154 12.8405 1.70154 12.7919C1.70153 12.7759 1.70153 12.7598 1.70153 12.7433C1.70146 12.2393 1.70097 11.7353 1.70017 11.2314C1.69926 10.6649 1.69874 10.0983 1.69873 9.53183C1.69873 9.47136 1.69872 9.41089 1.69872 9.35042C1.69872 9.33554 1.69872 9.32065 1.69872 9.30531C1.69869 9.08098 1.69837 8.85665 1.69789 8.63232C1.69734 8.37698 1.69718 8.12164 1.69751 7.8663C1.69767 7.73609 1.69765 7.6059 1.69715 7.47569C1.69669 7.35632 1.69675 7.23696 1.69721 7.11758C1.69729 7.07457 1.69718 7.03156 1.69686 6.98855C1.6943 6.61854 1.74836 6.30411 1.97766 6.00005C1.989 5.98441 2.00035 5.96877 2.01203 5.95265C2.18907 5.72916 2.47341 5.58809 2.71794 5.45144C2.75908 5.42822 2.8002 5.40496 2.84131 5.38169C2.86901 5.36601 2.89672 5.35035 2.92444 5.3347C3.05404 5.26146 3.18259 5.18648 3.31099 5.11116C3.50287 4.99878 3.69557 4.88791 3.88877 4.77782C4.1048 4.65472 4.32008 4.53041 4.5347 4.40486C4.76857 4.2681 5.0033 4.13285 5.23805 3.99763C5.35869 3.92812 5.47928 3.85852 5.59988 3.78894C5.64803 3.76116 5.69618 3.73338 5.74432 3.7056C5.76816 3.69185 5.79199 3.6781 5.81655 3.66394C8.9221 1.87227 8.9221 1.87227 8.99434 1.8306C9.04245 1.80284 9.09056 1.77508 9.13867 1.74732C9.25957 1.67756 9.38049 1.60783 9.50144 1.53815C9.7337 1.40433 9.96572 1.27012 10.1971 1.13477C10.4459 0.989294 10.6959 0.84584 10.9465 0.703432C11.0304 0.655738 11.114 0.607644 11.197 0.558467C11.8347 0.18255 12.3924 0.313734 12.9999 0.666714Z" fill="#5D6C7E"/>
<path d="M12.0449 6.07795C12.1178 6.11453 12.1878 6.15395 12.2568 6.19722C12.3916 6.27984 12.5277 6.35947 12.6652 6.4375C12.8334 6.53316 13.0009 6.62999 13.1679 6.72778C13.3631 6.84197 13.559 6.95473 13.7554 7.06666C13.9741 7.19124 14.1919 7.31715 14.4091 7.44427C14.55 7.52666 14.6914 7.60814 14.8332 7.68889C14.9973 7.78228 15.1606 7.87686 15.3235 7.97222C15.5186 8.08641 15.7146 8.19917 15.911 8.31111C16.5218 8.65924 16.5218 8.65924 16.6812 8.75852C16.7383 8.79043 16.7887 8.81339 16.8492 8.83618C16.9583 8.88149 17.0559 8.93068 17.1332 9.02222C17.2056 9.19827 17.1853 9.40375 17.1828 9.59027C17.1834 9.64858 17.1841 9.70689 17.185 9.7652C17.1869 9.90686 17.1867 10.0485 17.1857 10.1901C17.185 10.3053 17.185 10.4205 17.1855 10.5357C17.1856 10.5521 17.1856 10.5685 17.1857 10.5855C17.1859 10.6188 17.186 10.6522 17.1862 10.6856C17.1875 10.9982 17.1864 11.3108 17.1846 11.6234C17.1831 11.8913 17.1837 12.1592 17.1858 12.4271C17.1883 12.7386 17.1894 13.05 17.1883 13.3616C17.1882 13.3948 17.1881 13.4281 17.188 13.4614C17.1879 13.4859 17.1879 13.4859 17.1878 13.5109C17.1876 13.6259 17.1883 13.7408 17.1894 13.8558C17.1909 14.0107 17.1901 14.1656 17.1879 14.3205C17.1874 14.3773 17.1876 14.4341 17.1886 14.4908C17.1954 14.9077 17.1954 14.9077 17.0925 15.0236C16.9929 15.1026 16.884 15.1527 16.7663 15.1989C16.6749 15.2374 16.5915 15.289 16.5068 15.3403C16.4779 15.357 16.4779 15.357 16.4485 15.374C16.3298 15.4428 16.2113 15.5118 16.093 15.581C15.8843 15.703 15.6751 15.824 15.4651 15.9436C15.3169 16.0281 15.1694 16.1138 15.0221 16.2C14.837 16.3083 14.6513 16.4153 14.465 16.5214C14.3177 16.6054 14.1712 16.6907 14.0249 16.7764C13.8262 16.8927 13.6263 17.0068 13.4256 17.1196C13.2853 17.1987 13.1462 17.2793 13.0077 17.3614C12.864 17.4464 12.7192 17.5292 12.5739 17.6113C12.4783 17.6654 12.3839 17.7205 12.2909 17.779C12.2739 17.7896 12.2569 17.8001 12.2393 17.811C12.2074 17.8309 12.1758 17.8511 12.1444 17.8718C12.0756 17.9144 12.0363 17.9356 11.955 17.9227C11.8774 17.8831 11.802 17.8411 11.7277 17.7958C11.694 17.7757 11.6603 17.7555 11.6265 17.7354C11.6081 17.7244 11.5897 17.7134 11.5707 17.7021C11.4593 17.636 11.3469 17.5716 11.2346 17.5069C11.1977 17.4857 11.1977 17.4857 11.1601 17.464C11.1097 17.435 11.0592 17.4059 11.0087 17.3768C10.8872 17.3068 10.7658 17.2367 10.6443 17.1667C10.5962 17.1389 10.548 17.1111 10.4999 17.0833C10.211 16.9167 9.9221 16.75 9.63321 16.5833C9.60938 16.5696 9.58554 16.5558 9.56098 16.5417C9.51287 16.5139 9.46476 16.4861 9.41665 16.4584C9.29574 16.3886 9.17483 16.3189 9.05387 16.2492C8.82161 16.1154 8.58959 15.9812 8.35821 15.8458C8.16538 15.733 7.97175 15.6217 7.77766 15.5111C7.57295 15.3944 7.36871 15.277 7.16516 15.1583C7.14269 15.1452 7.12021 15.1321 7.09706 15.1187C7.01905 15.0731 6.94174 15.0279 6.86655 14.9778C6.85783 14.9343 6.85783 14.9343 6.85729 14.8799C6.85692 14.8592 6.85656 14.8385 6.85618 14.8172C6.85612 14.7943 6.85605 14.7714 6.85599 14.7478C6.8555 14.7115 6.8555 14.7115 6.85501 14.6745C6.85401 14.5928 6.8535 14.5112 6.85298 14.4296C6.85239 14.3712 6.85176 14.3129 6.85112 14.2546C6.84927 14.0791 6.84809 13.9037 6.84705 13.7282C6.84676 13.6787 6.84645 13.6291 6.84613 13.5795C6.8442 13.2717 6.84252 12.9639 6.8415 12.6561C6.84126 12.5848 6.84102 12.5135 6.84077 12.4421C6.84071 12.4244 6.84064 12.4067 6.84058 12.3884C6.83954 12.1014 6.83698 11.8145 6.83379 11.5275C6.83055 11.2329 6.82873 10.9382 6.82829 10.6436C6.82801 10.4781 6.8271 10.3127 6.82457 10.1473C6.82242 10.0064 6.82156 9.86546 6.82237 9.7245C6.82274 9.65258 6.82231 9.58083 6.82062 9.50893C6.81128 9.08851 6.81128 9.08851 6.90342 8.97799C6.99262 8.90424 7.09033 8.85873 7.19808 8.81832C7.26595 8.79143 7.32507 8.75516 7.38729 8.7171C7.43176 8.69147 7.47623 8.66587 7.52071 8.64028C7.57069 8.61149 7.62066 8.5827 7.67063 8.5539C7.69572 8.53946 7.72081 8.52501 7.74666 8.51012C7.86814 8.44015 7.98957 8.37007 8.11099 8.3C8.15914 8.27222 8.20729 8.24444 8.25544 8.21666C8.27927 8.20291 8.3031 8.18916 8.32766 8.175C9.1221 7.71666 9.1221 7.71666 9.19434 7.67499C9.24245 7.64723 9.29056 7.61947 9.33867 7.59171C9.45957 7.52195 9.58049 7.45222 9.70144 7.38255C9.93371 7.24872 10.1657 7.11452 10.3971 6.97916C10.603 6.85876 10.8098 6.7401 11.017 6.62204C11.2496 6.48947 11.4811 6.35507 11.7121 6.21979C11.7312 6.2088 11.7502 6.19782 11.7698 6.1865C11.8026 6.16708 11.835 6.14689 11.8667 6.12565C11.9328 6.08236 11.9655 6.06463 12.0449 6.07795Z" fill="#D9DFE7"/>
<path d="M22.2889 12.0222C22.2915 12.7013 22.2934 13.3803 22.2946 14.0594C22.2947 14.1397 22.2949 14.22 22.295 14.3003C22.2951 14.3163 22.2951 14.3323 22.2951 14.3488C22.2956 14.6071 22.2965 14.8653 22.2975 15.1236C22.2985 15.389 22.2992 15.6544 22.2994 15.9197C22.2995 16.0687 22.2999 16.2176 22.3007 16.3665C22.3014 16.5068 22.3017 16.6472 22.3015 16.7876C22.3015 16.8389 22.3017 16.8902 22.3022 16.9415C22.3053 17.3398 22.2702 17.6711 22.0223 18C22.0052 18.0235 22.0052 18.0235 21.9879 18.0474C21.8115 18.27 21.5284 18.411 21.2848 18.5472C21.2577 18.5625 21.2306 18.5778 21.2035 18.5932C21.1619 18.6167 21.1202 18.6403 21.0785 18.6638C20.9389 18.7426 20.8 18.8226 20.6611 18.9028C20.6255 18.9233 20.6255 18.9233 20.5892 18.9443C20.4075 19.0493 20.2263 19.1549 20.0452 19.2607C19.8106 19.3978 19.5751 19.5334 19.3396 19.6691C19.219 19.7386 19.0984 19.8082 18.9778 19.8778C18.9297 19.9056 18.8815 19.9333 18.8334 19.9611C18.8095 19.9749 18.7857 19.9886 18.7611 20.0028C15.0778 22.1278 15.0778 22.1278 15.0056 22.1694C14.9575 22.1972 14.9094 22.225 14.8612 22.2527C14.7403 22.3225 14.6194 22.3922 14.4985 22.4619C14.2662 22.5957 14.0342 22.7299 13.8028 22.8653C13.554 23.0107 13.304 23.1542 13.0534 23.2966C12.9695 23.3443 12.8859 23.3924 12.8029 23.4416C12.4305 23.6611 12.0794 23.7148 11.6504 23.6551C11.4184 23.5941 11.2059 23.4529 11 23.3333C10.9795 23.3215 10.9591 23.3096 10.9379 23.2973C10.8281 23.2336 10.7186 23.1695 10.6091 23.1053C10.4586 23.0172 10.3071 22.9307 10.1556 22.8444C9.93956 22.7213 9.72428 22.597 9.50966 22.4715C9.2758 22.3347 9.04106 22.1995 8.80631 22.0642C8.68567 21.9947 8.56508 21.9251 8.44448 21.8556C8.39633 21.8278 8.34819 21.8 8.30004 21.7722C8.01115 21.6056 8.01115 21.6056 7.93882 21.5638C7.89102 21.5362 7.84321 21.5087 7.79541 21.4811C7.68316 21.4163 7.57091 21.3516 7.45866 21.2868C7.41891 21.2638 7.37916 21.2409 7.3394 21.218C7.28952 21.1892 7.23963 21.1604 7.18975 21.1316C7.0748 21.0653 6.95978 20.9991 6.84448 20.9333C6.90759 20.8651 6.9689 20.82 7.0503 20.7755C7.07313 20.7629 7.09596 20.7503 7.11948 20.7373C7.14377 20.7241 7.16806 20.7109 7.19309 20.6972C7.24392 20.6692 7.29473 20.6411 7.34552 20.6129C7.37026 20.5993 7.395 20.5856 7.42048 20.5715C7.50659 20.5235 7.5917 20.474 7.67643 20.4236C7.83131 20.3317 7.98704 20.2413 8.14309 20.1514C8.1677 20.1372 8.1923 20.123 8.21765 20.1084C8.26811 20.0794 8.31857 20.0503 8.36904 20.0212C8.49052 19.9513 8.61194 19.8812 8.73337 19.8111C8.87831 19.7275 9.02326 19.6439 9.16827 19.5603C9.40053 19.4265 9.63255 19.2923 9.86393 19.1569C10.0699 19.0365 10.2769 18.9177 10.4842 18.7996C10.6869 18.684 10.8888 18.5672 11.0902 18.4494C11.4453 18.2417 11.8019 18.0367 12.1593 17.8331C12.3296 17.7359 12.4988 17.637 12.668 17.538C12.8305 17.4431 12.9936 17.3494 13.1572 17.2564C13.3045 17.1724 13.4509 17.0871 13.5973 17.0014C13.796 16.8851 13.9959 16.771 14.1965 16.6581C14.3369 16.579 14.4762 16.4983 14.6148 16.4162C14.7356 16.3447 14.8573 16.275 14.9792 16.2056C15.1474 16.1098 15.3149 16.013 15.482 15.9153C15.8665 15.6905 16.2525 15.4681 16.6396 15.2478C16.7787 15.1683 16.9163 15.0865 17.053 15.0029C17.1379 14.952 17.225 14.9052 17.312 14.858C17.5989 14.702 17.8839 14.5419 18.1649 14.3753C18.3051 14.2921 18.4463 14.2106 18.5875 14.1292C18.6121 14.115 18.6367 14.1008 18.6621 14.0862C18.7126 14.0571 18.763 14.0281 18.8135 13.999C18.935 13.929 19.0564 13.859 19.1778 13.7889C19.226 13.7611 19.2741 13.7333 19.3223 13.7056C19.3461 13.6918 19.3699 13.6781 19.3945 13.6639C19.8519 13.4 20.3093 13.1361 20.7667 12.8722C20.7905 12.8585 20.8144 12.8447 20.839 12.8305C20.887 12.8028 20.9351 12.7751 20.9831 12.7474C21.1049 12.6771 21.2267 12.6069 21.3484 12.5365C21.4684 12.4672 21.5884 12.398 21.7085 12.3289C21.7778 12.2889 21.847 12.2488 21.9163 12.2087C21.959 12.184 22.0017 12.1594 22.0445 12.1347C22.0641 12.1233 22.0838 12.1118 22.1041 12.1001C22.122 12.0898 22.1399 12.0795 22.1584 12.0688C22.174 12.0598 22.1897 12.0507 22.2058 12.0414C22.2445 12.0222 22.2445 12.0222 22.2889 12.0222Z" fill="#5D6C7E"/>
<path d="M17.1782 3.0919C17.2338 3.11618 17.2862 3.14367 17.3391 3.17352C17.362 3.18634 17.3848 3.19916 17.4083 3.21236C17.4448 3.23306 17.4448 3.23306 17.4819 3.25417C17.5071 3.26835 17.5322 3.28253 17.5581 3.29714C17.7093 3.38268 17.8598 3.46938 18.0092 3.55801C18.1495 3.64118 18.2906 3.72275 18.4319 3.80417C18.4688 3.82543 18.4688 3.82543 18.5065 3.84713C18.557 3.8762 18.6074 3.90526 18.6579 3.93432C18.7794 4.00429 18.9008 4.07437 19.0222 4.14444C19.0704 4.17222 19.1185 4.2 19.1667 4.22778C19.263 4.28333 19.3593 4.33889 19.4555 4.39444C19.4794 4.40819 19.5032 4.42195 19.5278 4.43612C19.5759 4.46387 19.624 4.49163 19.6721 4.51939C19.793 4.58915 19.9139 4.65889 20.0349 4.72856C20.2889 4.87491 20.5426 5.02169 20.7955 5.17003C20.9169 5.24107 21.0388 5.31094 21.1615 5.3796C22.0905 5.90003 22.0905 5.90003 22.2569 6.46772C22.2902 6.5923 22.2981 6.70682 22.2969 6.83524C22.297 6.85759 22.297 6.87994 22.2971 6.90297C22.2972 6.97715 22.2968 7.05132 22.2965 7.12549C22.2964 7.17895 22.2964 7.23241 22.2965 7.28586C22.2965 7.41549 22.2962 7.54511 22.2958 7.67474C22.2953 7.82569 22.2952 7.97664 22.2951 8.1276C22.295 8.39675 22.2945 8.66591 22.2939 8.93506C22.2933 9.19638 22.2928 9.4577 22.2925 9.71903C22.2925 9.73516 22.2925 9.75129 22.2925 9.76791C22.2924 9.84885 22.2923 9.92978 22.2922 10.0107C22.2915 10.6812 22.2904 11.3517 22.2889 12.0222C22.2761 12.0292 22.2634 12.0362 22.2503 12.0434C22.1919 12.0754 22.1336 12.1074 22.0753 12.1395C22.0553 12.1505 22.0352 12.1615 22.0146 12.1728C21.8713 12.2515 21.7296 12.3321 21.5889 12.4153C21.3934 12.5301 21.197 12.6433 21 12.7556C20.784 12.8787 20.5687 13.003 20.3541 13.1285C20.1202 13.2653 19.8855 13.4005 19.6507 13.5358C19.5301 13.6053 19.4095 13.6749 19.2889 13.7444C19.2407 13.7722 19.1926 13.8 19.1444 13.8278C19.1206 13.8415 19.0968 13.8553 19.0722 13.8694C18.2778 14.3278 18.2778 14.3278 18.2054 14.3695C18.1577 14.3971 18.11 14.4246 18.0622 14.4521C17.9492 14.5174 17.8361 14.5826 17.723 14.6477C17.6694 14.6785 17.6159 14.7094 17.5623 14.7402C17.5244 14.762 17.4865 14.7838 17.4486 14.8056C17.4257 14.8188 17.4028 14.832 17.3792 14.8456C17.3591 14.8572 17.3389 14.8688 17.3181 14.8808C17.278 14.9044 17.2388 14.9297 17.2 14.9556C17.178 14.9556 17.156 14.9556 17.1333 14.9556C17.126 12.9976 17.1187 11.0396 17.1111 9.02222C16.8361 8.86822 16.8361 8.86822 16.5555 8.71111C16.3611 8.59722 16.3611 8.59722 16.2717 8.54418C16.1642 8.4806 16.0557 8.41877 15.9472 8.35694C15.6615 8.19412 15.3771 8.02934 15.0932 7.86344C14.8845 7.74149 14.6753 7.62046 14.4652 7.50087C14.2942 7.40336 14.1242 7.30409 13.9542 7.20469C13.7918 7.10976 13.6286 7.01611 13.4651 6.92304C13.3178 6.83907 13.1713 6.75374 13.025 6.66805C12.8239 6.55034 12.6218 6.4347 12.4186 6.32084C12.3604 6.28818 12.3024 6.25528 12.2444 6.22222C12.2233 6.21022 12.2021 6.19822 12.1804 6.18585C12.1498 6.1681 12.1498 6.1681 12.1186 6.15C12.1001 6.13934 12.0816 6.12869 12.0625 6.11771C12.0492 6.1082 12.0359 6.09869 12.0222 6.08889C12.0222 6.07422 12.0222 6.05955 12.0222 6.04444C12.062 6.01613 12.062 6.01613 12.1186 5.98377C12.1397 5.97159 12.1607 5.95942 12.1824 5.94688C12.2057 5.9337 12.2289 5.92052 12.2528 5.90694C12.2768 5.89315 12.3007 5.87935 12.3254 5.86514C12.3764 5.83585 12.4274 5.80662 12.4784 5.77747C12.5759 5.72174 12.6731 5.66547 12.7704 5.60924C12.8425 5.56756 12.9147 5.52595 12.9869 5.48437C13.0852 5.42772 13.1836 5.37101 13.2819 5.31423C13.5034 5.18631 13.725 5.05858 13.9472 4.93194C14.1338 4.82561 14.3193 4.71768 14.5047 4.60932C14.7411 4.47121 14.9782 4.33451 15.2155 4.19787C15.2895 4.15522 15.3634 4.11251 15.4374 4.06979C15.6589 3.94186 15.8805 3.81414 16.1028 3.6875C16.3161 3.56587 16.5283 3.44228 16.7404 3.31831C16.7711 3.30046 16.7711 3.30046 16.8025 3.28224C16.8482 3.2553 16.8936 3.22775 16.9387 3.19979C16.9623 3.18534 16.986 3.17088 17.0103 3.15599C17.0317 3.14263 17.0532 3.12928 17.0752 3.11552C17.1333 3.08889 17.1333 3.08889 17.1782 3.0919Z" fill="#5D6C7E"/>
<path d="M6.86663 9.04443C6.87396 11.0024 6.88129 12.9604 6.88885 14.9778C7.16385 15.1318 7.16385 15.1318 7.4444 15.2889C7.6319 15.3986 7.6319 15.3986 7.72149 15.4517C7.8466 15.5258 7.97261 15.5982 8.09857 15.6708C8.13548 15.6921 8.13548 15.6921 8.17313 15.7138C8.22359 15.7429 8.27405 15.7719 8.32451 15.801C8.446 15.871 8.56742 15.941 8.68885 16.0111C8.737 16.0389 8.78514 16.0667 8.83329 16.0944C9.31477 16.3722 9.79626 16.65 10.2777 16.9278C10.3016 16.9415 10.3254 16.9553 10.35 16.9694C10.3981 16.9972 10.4462 17.025 10.4943 17.0527C10.6152 17.1225 10.7361 17.1922 10.8571 17.2619C11.1212 17.4141 11.3851 17.5669 11.6483 17.7207C11.7578 17.7848 11.8675 17.8484 11.9777 17.9111C11.9777 17.9258 11.9777 17.9404 11.9777 17.9555C10.1 19.0389 10.1 19.0389 10.0277 19.0806C9.97961 19.1083 9.9315 19.1361 9.88339 19.1638C9.76249 19.2336 9.64157 19.3033 9.52062 19.373C9.28836 19.5068 9.05634 19.641 8.82496 19.7764C8.63212 19.8892 8.43849 20.0005 8.2444 20.1111C8.04943 20.2222 7.85488 20.334 7.66107 20.4472C7.62907 20.4658 7.62907 20.4658 7.59642 20.4848C7.48091 20.5522 7.36591 20.6203 7.25135 20.6893C7.22695 20.7039 7.20255 20.7184 7.17741 20.7334C7.13044 20.7615 7.08361 20.7898 7.03692 20.8183C7.0159 20.8308 6.99488 20.8433 6.97322 20.8562C6.9455 20.8729 6.9455 20.8729 6.91721 20.89C6.85698 20.9151 6.83742 20.9131 6.77774 20.8889C6.74329 20.8718 6.70941 20.8535 6.676 20.8345C6.65599 20.8231 6.63597 20.8117 6.61535 20.8C6.59377 20.7877 6.57219 20.7753 6.54996 20.7625C6.51594 20.7431 6.51594 20.7431 6.48123 20.7233C6.30039 20.62 6.12048 20.5151 5.94078 20.4099C5.76858 20.3091 5.59554 20.2099 5.42218 20.1111C5.20615 19.988 4.99087 19.8637 4.77625 19.7381C4.54239 19.6014 4.30765 19.4661 4.0729 19.3309C3.92821 19.2475 3.78359 19.1641 3.63896 19.0806C3.49373 18.9968 3.34847 18.9131 3.20318 18.8294C3.13115 18.7879 3.05917 18.7462 2.9872 18.7046C2.89108 18.649 2.7947 18.5939 2.69814 18.5391C2.24213 18.2792 1.88962 18.0279 1.73192 17.4986C1.70549 17.3897 1.70503 17.2843 1.70573 17.1728C1.70569 17.1505 1.70565 17.1282 1.70561 17.1052C1.70554 17.0308 1.70578 16.9564 1.70603 16.8821C1.70604 16.8286 1.70603 16.7752 1.70601 16.7217C1.70599 16.5919 1.70619 16.462 1.70647 16.3321C1.70679 16.181 1.70685 16.0298 1.7069 15.8786C1.707 15.6091 1.7073 15.3395 1.70772 15.07C1.70813 14.8082 1.70844 14.5464 1.70863 14.2846C1.70864 14.2685 1.70865 14.2523 1.70867 14.2357C1.70872 14.1547 1.70878 14.0736 1.70883 13.9926C1.7093 13.321 1.71008 12.6494 1.71107 11.9778C1.73425 11.9648 1.73425 11.9648 1.7579 11.9516C1.82943 11.9117 1.90094 11.8717 1.97244 11.8318C1.99674 11.8182 2.02104 11.8046 2.04607 11.7907C2.20808 11.7001 2.36901 11.6078 2.52913 11.5139C2.56573 11.4924 2.56573 11.4924 2.60307 11.4706C2.62235 11.4593 2.64164 11.4479 2.66151 11.4363C2.81073 11.349 2.96086 11.2633 3.11107 11.1778C3.3271 11.0547 3.54238 10.9304 3.757 10.8048C3.99087 10.668 4.2256 10.5328 4.46036 10.3976C4.581 10.3281 4.70159 10.2585 4.82218 10.1889C4.87033 10.1611 4.91848 10.1333 4.96663 10.1055C4.99046 10.0918 5.01429 10.078 5.03885 10.0639C5.25552 9.93888 5.25552 9.93888 5.32775 9.89721C5.37586 9.86945 5.42397 9.84169 5.47208 9.81393C5.59299 9.74417 5.7139 9.67444 5.83486 9.60476C5.85896 9.59087 5.88306 9.57698 5.9079 9.56267C5.95591 9.535 6.00393 9.50735 6.05196 9.47971C6.17476 9.40896 6.29719 9.33765 6.41914 9.26544C6.44368 9.25096 6.46821 9.23648 6.49348 9.22157C6.54035 9.19386 6.58715 9.16604 6.63387 9.13809C6.65473 9.12578 6.6756 9.11346 6.69709 9.10077C6.71541 9.08986 6.73373 9.07895 6.7526 9.0677C6.79996 9.04443 6.79996 9.04443 6.86663 9.04443Z" fill="#9CA9B9"/>
<path d="M12.0324 17.947C12.0511 17.9572 12.0697 17.9674 12.0889 17.9778C12.1089 17.9885 12.1289 17.9992 12.1495 18.0102C12.1713 18.0228 12.1931 18.0353 12.2156 18.0482C12.2403 18.0624 12.2651 18.0766 12.2905 18.0912C12.3173 18.1066 12.3441 18.1221 12.3709 18.1375C12.3988 18.1536 12.4267 18.1696 12.4547 18.1857C12.5264 18.2269 12.5981 18.2682 12.6697 18.3095C12.7333 18.3461 12.7968 18.3827 12.8604 18.4193C12.9794 18.4879 13.0984 18.5566 13.2174 18.6254C13.3375 18.6948 13.4577 18.7641 13.5778 18.8334C13.626 18.8612 13.6741 18.8889 13.7223 18.9167C13.758 18.9373 13.758 18.9373 13.7945 18.9584C14.1917 19.1875 14.1917 19.1875 14.5889 19.4167C14.6128 19.4305 14.6366 19.4442 14.6612 19.4584C14.7093 19.4861 14.7574 19.5139 14.8055 19.5417C14.9264 19.6114 15.0473 19.6812 15.1683 19.7508C15.4005 19.8847 15.6326 20.0189 15.8639 20.1542C16.0466 20.2611 16.2299 20.3666 16.4138 20.4714C16.8111 20.698 16.8111 20.698 16.982 20.7973C16.9974 20.8061 17.0129 20.815 17.0288 20.8241C17.1308 20.8838 17.1308 20.8838 17.1556 20.9334C17.1366 20.9441 17.1366 20.9441 17.1171 20.955C16.8486 21.1058 16.5812 21.2584 16.3154 21.414C16.0797 21.552 15.843 21.6883 15.6063 21.8247C15.4857 21.8942 15.3651 21.9638 15.2445 22.0334C15.1963 22.0612 15.1482 22.0889 15.1 22.1167C15.0762 22.1305 15.0524 22.1442 15.0278 22.1584C14.5704 22.4223 14.113 22.6862 13.6556 22.95C13.6317 22.9638 13.6079 22.9776 13.5833 22.9918C13.5354 23.0194 13.4875 23.047 13.4396 23.0746C13.3283 23.1386 13.2171 23.2029 13.1065 23.2682C13.0679 23.2911 13.0291 23.3138 12.9904 23.3365C12.9421 23.3649 12.894 23.3934 12.8459 23.422C12.4576 23.6492 12.0954 23.7155 11.6496 23.6554C11.4179 23.5929 11.206 23.4531 11 23.3334C10.9795 23.3215 10.9591 23.3096 10.9379 23.2974C10.8281 23.2337 10.7186 23.1696 10.6091 23.1053C10.4586 23.0172 10.3071 22.9308 10.1556 22.8445C9.93956 22.7214 9.72428 22.5971 9.50966 22.4715C9.2758 22.3348 9.04106 22.1995 8.80631 22.0643C8.68567 21.9948 8.56508 21.9252 8.44448 21.8556C8.39633 21.8278 8.34819 21.8 8.30004 21.7723C8.01115 21.6056 8.01115 21.6056 7.93882 21.5639C7.89102 21.5363 7.84321 21.5087 7.79541 21.4811C7.68316 21.4164 7.57091 21.3516 7.45866 21.2868C7.41891 21.2639 7.37916 21.241 7.3394 21.218C7.28952 21.1892 7.23963 21.1604 7.18975 21.1316C7.0748 21.0653 6.95978 20.9991 6.84448 20.9334C6.90759 20.8652 6.9689 20.8201 7.0503 20.7756C7.08454 20.7567 7.08454 20.7567 7.11948 20.7374C7.15592 20.7175 7.15592 20.7175 7.19309 20.6973C7.24392 20.6692 7.29473 20.6411 7.34552 20.613C7.37026 20.5993 7.395 20.5856 7.42048 20.5715C7.50659 20.5235 7.5917 20.474 7.67643 20.4237C7.83131 20.3317 7.98704 20.2414 8.14309 20.1514C8.1677 20.1373 8.1923 20.1231 8.21765 20.1085C8.26811 20.0794 8.31857 20.0503 8.36904 20.0213C8.49052 19.9513 8.61194 19.8812 8.73337 19.8112C8.87831 19.7275 9.02326 19.6439 9.16827 19.5604C9.40053 19.4265 9.63255 19.2923 9.86393 19.157C10.0699 19.0365 10.2769 18.9178 10.4842 18.7996C10.6866 18.6842 10.8883 18.5676 11.0894 18.4499C11.2853 18.3353 11.4819 18.2218 11.6787 18.1086C11.7131 18.0888 11.7131 18.0888 11.7482 18.0685C11.7684 18.0569 11.7887 18.0453 11.8095 18.0333C11.8677 18.0007 11.8677 18.0007 11.9227 17.9597C11.9778 17.9334 11.9778 17.9334 12.0324 17.947Z" fill="#9CA9B9"/>
<path d="M13 0.66669C13.0205 0.678567 13.041 0.690444 13.0621 0.702681C13.1719 0.766414 13.2815 0.830497 13.391 0.894728C13.5415 0.982826 13.6929 1.06927 13.8445 1.15558C14.0605 1.27868 14.2758 1.403 14.4904 1.52854C14.7243 1.6653 14.959 1.80055 15.1938 1.93578C15.3144 2.00529 15.435 2.07488 15.5556 2.14447C15.6037 2.17225 15.6519 2.20002 15.7 2.2278C15.9889 2.39447 15.9889 2.39447 16.0613 2.43619C16.1091 2.46377 16.1569 2.49135 16.2047 2.51893C16.3169 2.58369 16.4292 2.64845 16.5414 2.71323C16.5812 2.73617 16.6209 2.75911 16.6607 2.78205C16.7106 2.81084 16.7604 2.83963 16.8103 2.86843C16.9253 2.93476 17.0403 3.00097 17.1556 3.06669C17.0925 3.1349 17.0312 3.18001 16.9498 3.2245C16.9155 3.24341 16.9155 3.24341 16.8806 3.26271C16.8563 3.27594 16.832 3.28917 16.807 3.3028C16.7563 3.33078 16.7056 3.35879 16.655 3.38683C16.6303 3.40049 16.6056 3.41416 16.5801 3.42824C16.4915 3.47767 16.4039 3.5287 16.3167 3.58058C16.1795 3.66204 16.0415 3.74186 15.9028 3.82086C15.5966 3.99538 15.2919 4.17229 14.9875 4.35002C14.6064 4.57254 14.2241 4.7929 13.8407 5.01141C13.6705 5.1086 13.5013 5.20748 13.3321 5.30645C13.1885 5.39033 13.0445 5.47333 12.9 5.55558C12.4797 5.78349 12.4797 5.78349 12.0778 6.04021C12.0223 6.06669 12.0223 6.06669 11.9677 6.05303C11.949 6.04287 11.9304 6.03271 11.9111 6.02225C11.8912 6.01156 11.8712 6.00086 11.8506 5.98985C11.8179 5.97104 11.8179 5.97104 11.7845 5.95185C11.7598 5.93766 11.735 5.92348 11.7095 5.90887C11.6828 5.89342 11.656 5.87797 11.6292 5.86252C11.6013 5.84647 11.5733 5.83043 11.5454 5.81439C11.4737 5.77319 11.402 5.7319 11.3303 5.69057C11.2668 5.65394 11.2033 5.61735 11.1397 5.58075C11.0206 5.51214 10.9016 5.44342 10.7827 5.37467C10.6866 5.3192 10.5906 5.2638 10.4946 5.2084C10.4224 5.16675 10.3502 5.1251 10.278 5.08344C10.1811 5.02756 10.0843 4.97172 9.98736 4.91591C9.7551 4.78208 9.52308 4.64787 9.2917 4.51252C9.09887 4.39974 8.90524 4.28841 8.71115 4.1778C8.49524 4.05475 8.28006 3.93052 8.06556 3.80503C7.901 3.70879 7.73603 3.61328 7.57087 3.51808C7.54686 3.50422 7.52286 3.49036 7.49812 3.47609C7.38538 3.41104 7.27254 3.34618 7.15941 3.28179C7.13966 3.2705 7.1199 3.2592 7.09954 3.24757C7.06288 3.22661 7.02616 3.20574 6.98938 3.18499C6.86921 3.11614 6.86921 3.11614 6.84448 3.06669C6.86352 3.05601 6.86352 3.05601 6.88294 3.04511C7.15145 2.89425 7.41883 2.74165 7.68464 2.58607C7.9204 2.44811 8.15707 2.31173 8.39377 2.17538C8.51441 2.10587 8.635 2.03628 8.75559 1.96669C8.80374 1.93891 8.85189 1.91113 8.90004 1.88336C8.92387 1.86961 8.9477 1.85586 8.97226 1.84169C9.42967 1.5778 9.88708 1.31391 10.3445 1.05002C10.3803 1.02937 10.3803 1.02937 10.4168 1.0083C10.4647 0.980678 10.5126 0.953081 10.5605 0.925511C10.6718 0.861446 10.783 0.797153 10.8935 0.731833C10.9322 0.708994 10.971 0.686245 11.0097 0.663521C11.058 0.635195 11.1061 0.606707 11.1542 0.578018C11.809 0.194918 12.3716 0.301516 13 0.66669Z" fill="#9CA9B9"/>
<path d="M6.86659 9.04443C6.86659 11.0024 6.86659 12.9604 6.86659 14.9778C6.71993 15.0584 6.57326 15.1391 6.42215 15.2222C6.33666 15.2713 6.25145 15.3207 6.16659 15.3708C5.97108 15.4856 5.77472 15.5989 5.57771 15.7111C5.36167 15.8342 5.1464 15.9585 4.93178 16.0841C4.69791 16.2208 4.46318 16.3561 4.22842 16.4913C4.10778 16.5608 3.98719 16.6304 3.86659 16.7C3.81845 16.7278 3.7703 16.7555 3.72215 16.7833C3.69832 16.7971 3.67448 16.8108 3.64993 16.825C3.43326 16.95 3.43326 16.95 3.36102 16.9917C3.31294 17.0194 3.26486 17.0471 3.21679 17.0749C3.09536 17.145 2.97389 17.215 2.85236 17.2849C2.8034 17.3131 2.75444 17.3412 2.70548 17.3694C2.68179 17.3831 2.6581 17.3967 2.63369 17.4107C2.51508 17.4791 2.39695 17.5481 2.27953 17.6185C2.2457 17.6387 2.2457 17.6387 2.21119 17.6594C2.16856 17.6849 2.12601 17.7106 2.08354 17.7365C2.05526 17.7534 2.05526 17.7534 2.0264 17.7707C2.00995 17.7807 1.99349 17.7907 1.97654 17.801C1.93326 17.8222 1.93326 17.8222 1.86659 17.8222C1.8488 17.7853 1.83126 17.7482 1.81382 17.7111C1.80402 17.6905 1.79422 17.6699 1.78413 17.6486C1.71903 17.4876 1.70461 17.3444 1.70569 17.1728C1.70566 17.1505 1.70562 17.1282 1.70558 17.1052C1.70551 17.0308 1.70575 16.9564 1.70599 16.8821C1.70601 16.8286 1.706 16.7752 1.70597 16.7217C1.70596 16.5919 1.70615 16.462 1.70644 16.3321C1.70676 16.181 1.70682 16.0298 1.70687 15.8786C1.70697 15.6091 1.70727 15.3395 1.70769 15.07C1.70809 14.8082 1.70841 14.5464 1.7086 14.2846C1.70861 14.2685 1.70862 14.2523 1.70863 14.2357C1.70869 14.1547 1.70875 14.0736 1.7088 13.9926C1.70926 13.321 1.71005 12.6494 1.71104 11.9778C1.73422 11.9648 1.73422 11.9648 1.75787 11.9516C1.8294 11.9117 1.9009 11.8717 1.97241 11.8318C1.99671 11.8182 2.02101 11.8046 2.04604 11.7907C2.20805 11.7001 2.36897 11.6078 2.52909 11.5139C2.5657 11.4924 2.5657 11.4924 2.60304 11.4706C2.62232 11.4593 2.6416 11.4479 2.66147 11.4363C2.8107 11.349 2.96083 11.2633 3.11104 11.1778C3.32707 11.0547 3.54235 10.9304 3.75697 10.8048C3.99084 10.668 4.22557 10.5328 4.46032 10.3976C4.58096 10.3281 4.70155 10.2585 4.82215 10.1889C4.8703 10.1611 4.91845 10.1333 4.96659 10.1055C4.99043 10.0918 5.01426 10.078 5.03882 10.0639C5.25548 9.93888 5.25548 9.93888 5.32772 9.89721C5.37583 9.86945 5.42394 9.84169 5.47205 9.81393C5.59295 9.74417 5.71387 9.67444 5.83482 9.60476C5.85893 9.59087 5.88303 9.57698 5.90787 9.56267C5.95588 9.535 6.0039 9.50735 6.05193 9.47971C6.17473 9.40896 6.29716 9.33765 6.41911 9.26544C6.44364 9.25096 6.46818 9.23648 6.49345 9.22157C6.54032 9.19386 6.58712 9.16604 6.63384 9.13809C6.6547 9.12578 6.67557 9.11346 6.69706 9.10077C6.71538 9.08986 6.7337 9.07895 6.75257 9.0677C6.79993 9.04443 6.79993 9.04443 6.86659 9.04443Z" fill="#9CA9B9"/>
<path d="M22.1172 6.17383C22.1814 6.21762 22.1917 6.2792 22.2152 6.35135C22.2245 6.37899 22.2338 6.40663 22.2433 6.43511C22.2709 6.52508 22.2916 6.60129 22.2916 6.69558C22.2916 6.71464 22.2917 6.7337 22.2917 6.75335C22.2917 6.77419 22.2916 6.79502 22.2915 6.81649C22.2916 6.84982 22.2916 6.84982 22.2916 6.88382C22.2916 6.95848 22.2915 7.03313 22.2914 7.10779C22.2914 7.16122 22.2914 7.21466 22.2914 7.26809C22.2914 7.38324 22.2913 7.49838 22.2912 7.61353C22.291 7.78001 22.291 7.94649 22.2909 8.11297C22.2909 8.38308 22.2907 8.65318 22.2905 8.92329C22.2903 9.18567 22.2902 9.44805 22.2901 9.71044C22.2901 9.72661 22.2901 9.74278 22.2901 9.75945C22.29 9.84058 22.29 9.92172 22.29 10.0028C22.2897 10.676 22.2894 11.3491 22.2889 12.0222C22.2761 12.0292 22.2634 12.0362 22.2503 12.0434C22.1919 12.0754 22.1336 12.1074 22.0753 12.1394C22.0552 12.1504 22.0352 12.1614 22.0145 12.1727C21.8713 12.2514 21.7295 12.3321 21.5889 12.4152C21.3933 12.5301 21.197 12.6433 21 12.7555C20.7839 12.8786 20.5687 13.0029 20.354 13.1285C20.1202 13.2652 19.8854 13.4005 19.6507 13.5357C19.53 13.6052 19.4095 13.6748 19.2889 13.7444C19.2407 13.7722 19.1926 13.8 19.1444 13.8277C19.1206 13.8415 19.0967 13.8552 19.0722 13.8694C18.2777 14.3277 18.2777 14.3277 18.2054 14.3695C18.1577 14.397 18.1099 14.4246 18.0622 14.4521C17.9492 14.5173 17.8361 14.5825 17.723 14.6476C17.6694 14.6785 17.6158 14.7093 17.5623 14.7402C17.5244 14.762 17.4865 14.7838 17.4485 14.8056C17.4257 14.8188 17.4028 14.832 17.3792 14.8455C17.359 14.8571 17.3389 14.8688 17.3181 14.8807C17.2779 14.9044 17.2387 14.9297 17.2 14.9555C17.178 14.9555 17.156 14.9555 17.1333 14.9555C17.1333 12.9975 17.1333 11.0395 17.1333 9.02218C17.3533 8.90118 17.3533 8.90118 17.5777 8.77773C17.7181 8.6956 17.7181 8.6956 17.8581 8.61289C17.9644 8.54997 18.0718 8.48883 18.1791 8.42773C18.3473 8.33197 18.5148 8.23514 18.6819 8.13746C19.0433 7.92622 19.4058 7.71694 19.7694 7.50968C19.956 7.40334 20.1415 7.29542 20.3269 7.18706C20.6128 7.02001 20.8998 6.85495 21.1867 6.68974C21.2372 6.66067 21.2877 6.6316 21.3381 6.60251C21.3871 6.57428 21.4361 6.54609 21.4852 6.51793C21.5928 6.456 21.7 6.39361 21.806 6.32886C21.8235 6.31824 21.841 6.30763 21.859 6.29669C21.8908 6.2773 21.9224 6.2577 21.9539 6.23782C22.0084 6.20469 22.0529 6.17879 22.1172 6.17383Z" fill="#485462"/>
<path d="M12.0468 6.07735C12.1185 6.11499 12.1884 6.15423 12.257 6.19723C12.3917 6.27985 12.5279 6.35948 12.6653 6.4375C12.8336 6.53317 13.0011 6.62999 13.1681 6.72778C13.3632 6.84198 13.5591 6.95474 13.7556 7.06667C13.9742 7.19125 14.1921 7.31716 14.4092 7.44427C14.5501 7.52667 14.6915 7.60814 14.8334 7.68889C14.9974 7.78228 15.1607 7.87687 15.3236 7.97223C15.5188 8.08642 15.7147 8.19918 15.9111 8.31111C16.3207 8.54452 16.7273 8.7828 17.1334 9.02223C17.0716 9.08864 17.0125 9.13357 16.933 9.17691C16.911 9.18906 16.889 9.2012 16.8663 9.21371C16.8426 9.22661 16.8189 9.2395 16.7945 9.25278C16.7438 9.28072 16.6932 9.3087 16.6427 9.33672C16.6233 9.3474 16.6233 9.3474 16.6036 9.3583C16.4759 9.42911 16.3496 9.50246 16.2236 9.57639C16.1794 9.60232 16.1352 9.62825 16.0909 9.65417C16.0688 9.66715 16.0466 9.68012 16.0238 9.69349C15.906 9.76232 15.7877 9.83047 15.6695 9.89861C15.6335 9.91937 15.6335 9.91937 15.5967 9.94054C15.5481 9.96858 15.4994 9.99661 15.4507 10.0246C15.3301 10.0942 15.2095 10.1637 15.0889 10.2333C15.0408 10.2611 14.9926 10.2889 14.9445 10.3167C14.9206 10.3304 14.8968 10.3442 14.8723 10.3583C14.4148 10.6222 13.9574 10.8861 13.5 11.15C13.4762 11.1638 13.4523 11.1775 13.4278 11.1917C13.3797 11.2194 13.3317 11.2471 13.2836 11.2749C13.1371 11.3594 12.9907 11.4439 12.8443 11.5285C12.7958 11.5564 12.7473 11.5844 12.6988 11.6122C12.5829 11.6787 12.4678 11.7458 12.3536 11.8151C12.3217 11.8342 12.3217 11.8342 12.2892 11.8536C12.2494 11.8774 12.2098 11.9015 12.1705 11.9261C12.0422 12.0021 12.0422 12.0021 11.9577 11.9932C11.8541 11.9365 11.7515 11.8786 11.65 11.8181C11.602 11.7897 11.5539 11.7613 11.5058 11.733C11.481 11.7183 11.4562 11.7037 11.4306 11.6886C11.3107 11.618 11.1901 11.5486 11.0695 11.4792C11.0209 11.4512 10.9724 11.4232 10.9238 11.3952C10.8997 11.3813 10.8756 11.3674 10.8507 11.3531C10.7301 11.2836 10.6095 11.214 10.4889 11.1444C10.4408 11.1167 10.3926 11.0889 10.3445 11.0611C9.6704 10.6722 8.99633 10.2833 8.32225 9.89445C8.28649 9.87381 8.28649 9.87381 8.25 9.85277C8.20196 9.82505 8.15392 9.79732 8.10588 9.76959C7.98392 9.6992 7.8619 9.6289 7.73979 9.55877C7.44686 9.3904 7.15557 9.2197 6.8667 9.04445C6.92244 8.98183 6.98446 8.9454 7.05724 8.90443C7.08235 8.89021 7.10746 8.87598 7.13333 8.86133C7.14668 8.85383 7.16003 8.84633 7.17378 8.83861C7.24472 8.79876 7.31546 8.75855 7.38623 8.71841C7.4006 8.71027 7.41496 8.70213 7.42977 8.69375C7.56217 8.6187 7.69371 8.54221 7.82503 8.46528C8.08066 8.31572 8.33713 8.16764 8.59376 8.01981C8.7144 7.9503 8.83499 7.8807 8.95559 7.81111C9.00374 7.78334 9.05188 7.75556 9.10003 7.72778C9.12387 7.71403 9.1477 7.70028 9.17225 7.68611C10.5445 6.89445 10.5445 6.89445 10.6167 6.85276C10.6648 6.82505 10.7128 6.79735 10.7608 6.76964C10.8831 6.69908 11.0054 6.62853 11.1277 6.55799C11.1647 6.53663 11.1647 6.53663 11.2025 6.51484C11.2512 6.48673 11.3 6.45868 11.3489 6.43069C11.4605 6.36662 11.5714 6.30183 11.681 6.23429C11.7099 6.21673 11.7099 6.21673 11.7394 6.19881C11.775 6.17715 11.8103 6.15514 11.8454 6.13271C11.9594 6.06382 11.9594 6.06382 12.0468 6.07735Z" fill="#FCFCFC"/>
<path d="M17.1332 9.04443C17.1429 9.79613 17.1503 10.5478 17.1548 11.2996C17.1553 11.3884 17.1558 11.4772 17.1564 11.566C17.1565 11.5837 17.1566 11.6014 17.1567 11.6196C17.1586 11.9056 17.1619 12.1916 17.1658 12.4776C17.1697 12.7712 17.1721 13.0649 17.1729 13.3585C17.1735 13.5396 17.1753 13.7207 17.1788 13.9018C17.181 14.0261 17.1817 14.1503 17.1811 14.2746C17.1809 14.3463 17.1815 14.4178 17.1835 14.4895C17.1949 14.9078 17.1949 14.9078 17.0928 15.0237C16.9932 15.1029 16.8843 15.1528 16.7664 15.1989C16.675 15.2374 16.5915 15.2889 16.5068 15.3403C16.4876 15.3514 16.4683 15.3625 16.4485 15.374C16.3298 15.4427 16.2113 15.5118 16.093 15.581C15.8843 15.703 15.6751 15.824 15.4651 15.9436C15.3169 16.0281 15.1694 16.1138 15.0221 16.2C14.837 16.3082 14.6513 16.4153 14.465 16.5214C14.3177 16.6054 14.1712 16.6907 14.0249 16.7764C13.8262 16.8927 13.6263 17.0068 13.4256 17.1196C13.2854 17.1987 13.1462 17.2793 13.0078 17.3613C12.8631 17.4469 12.7171 17.53 12.5709 17.613C12.4347 17.6905 12.2999 17.7701 12.1672 17.8536C12.1059 17.8913 12.0734 17.9111 11.9999 17.9111C11.9877 17.1634 11.9783 16.4157 11.9726 15.6679C11.972 15.5795 11.9713 15.4911 11.9706 15.4027C11.9704 15.3851 11.9703 15.3675 11.9702 15.3494C11.9678 15.0649 11.9636 14.7804 11.9587 14.496C11.9537 14.2038 11.9508 13.9117 11.9497 13.6195C11.949 13.4394 11.9467 13.2594 11.9423 13.0793C11.9392 12.9409 11.9388 12.8026 11.9396 12.6641C11.9394 12.6076 11.9384 12.551 11.9363 12.4944C11.9243 12.1457 11.9243 12.1457 11.9999 12C12.1321 11.8666 12.3009 11.7897 12.4714 11.7161C12.5489 11.682 12.6191 11.6414 12.6914 11.5973C12.734 11.5727 12.7767 11.5482 12.8193 11.5236C12.8679 11.4956 12.9164 11.4676 12.965 11.4397C12.9891 11.4258 13.0132 11.4119 13.0381 11.3976C13.1587 11.3281 13.2793 11.2585 13.3999 11.1889C13.448 11.1611 13.4962 11.1333 13.5443 11.1055C13.5682 11.0918 13.592 11.078 13.6165 11.0639C14.9888 10.2722 14.9888 10.2722 15.061 10.2305C15.1091 10.2028 15.1572 10.175 15.2053 10.1473C15.3262 10.0775 15.4472 10.0078 15.5681 9.9381C15.8013 9.80375 16.0342 9.66907 16.2665 9.53332C16.4491 9.4267 16.6318 9.32027 16.8148 9.21439C16.8535 9.192 16.8921 9.16956 16.9307 9.14712C16.954 9.13369 16.9772 9.12025 17.0012 9.10641C17.0219 9.09443 17.0426 9.08244 17.0639 9.0701C17.111 9.04443 17.111 9.04443 17.1332 9.04443Z" fill="#F3F5F7"/>
<path d="M12 17.9333C12.3787 18.1353 12.3787 18.1353 12.5069 18.2125C12.6664 18.3073 12.8268 18.4005 12.9875 18.4931C13.0121 18.5072 13.0367 18.5214 13.062 18.536C13.1125 18.5651 13.163 18.5942 13.2134 18.6232C13.3349 18.6932 13.4564 18.7633 13.5778 18.8333C13.6259 18.8611 13.6741 18.8889 13.7222 18.9167C14.1556 19.1667 14.1556 19.1667 14.5889 19.4167C14.6127 19.4304 14.6366 19.4442 14.6611 19.4584C14.7092 19.4861 14.7573 19.5139 14.8055 19.5416C14.9264 19.6114 15.0473 19.6811 15.1682 19.7508C15.4005 19.8846 15.6325 20.0188 15.8639 20.1542C16.0466 20.261 16.2299 20.3666 16.4137 20.4714C16.8111 20.6979 16.8111 20.6979 16.9819 20.7972C16.9974 20.8061 17.0128 20.815 17.0287 20.8241C17.1308 20.8838 17.1308 20.8838 17.1556 20.9333C17.1429 20.9405 17.1302 20.9476 17.1171 20.9549C16.8486 21.1058 16.5812 21.2584 16.3154 21.414C16.0796 21.5519 15.843 21.6883 15.6063 21.8247C15.4856 21.8942 15.365 21.9638 15.2444 22.0333C15.1963 22.0611 15.1481 22.0889 15.1 22.1167C15.0762 22.1304 15.0523 22.1442 15.0278 22.1583C14.5704 22.4222 14.113 22.6861 13.6556 22.95C13.6317 22.9638 13.6078 22.9776 13.5833 22.9917C13.5354 23.0194 13.4875 23.047 13.4395 23.0745C13.3282 23.1386 13.2171 23.2029 13.1065 23.2682C13.0678 23.291 13.0291 23.3138 12.9903 23.3365C12.9421 23.3648 12.8939 23.3933 12.8459 23.422C12.5635 23.5872 12.3307 23.6667 12 23.6667C12 21.7747 12 19.8827 12 17.9333Z" fill="#C6D0DC"/>
<path d="M12 0.333374C12 2.22537 12 4.11737 12 6.06671C11.8974 6.00804 11.7947 5.94937 11.6889 5.88893C11.5901 5.83365 11.5901 5.83365 11.4912 5.77852C11.261 5.65042 11.0325 5.51981 10.8052 5.38653C10.6338 5.2861 10.4615 5.18726 10.2889 5.08893C10.0729 4.96583 9.85762 4.84151 9.643 4.71596C9.40913 4.5792 9.1744 4.44396 8.93964 4.30873C8.819 4.23922 8.69841 4.16963 8.57782 4.10004C8.52967 4.07226 8.48152 4.04448 8.43337 4.01671C8.33707 3.96115 8.24078 3.9056 8.14448 3.85004C8.12063 3.83628 8.09677 3.82252 8.07219 3.80834C8.02427 3.78069 7.97636 3.75304 7.92845 3.72538C7.81749 3.66134 7.70651 3.59735 7.59541 3.53355C7.07067 3.23224 7.07067 3.23224 6.84448 3.08893C6.93352 3.01252 7.02655 2.95804 7.1292 2.90282C7.29138 2.81414 7.45168 2.72267 7.61115 2.62921C7.79876 2.51933 7.98666 2.40999 8.17504 2.30143C8.19903 2.2876 8.22302 2.27378 8.24774 2.25953C8.29641 2.23148 8.34509 2.20344 8.39377 2.1754C8.51441 2.10589 8.635 2.03629 8.75559 1.96671C8.80374 1.93893 8.85189 1.91115 8.90004 1.88337C8.92387 1.86962 8.9477 1.85587 8.97226 1.84171C9.42967 1.57782 9.88707 1.31393 10.3445 1.05004C10.3803 1.02939 10.3803 1.02939 10.4168 1.00832C10.4647 0.980696 10.5126 0.953098 10.5605 0.925529C10.6718 0.861464 10.783 0.797171 10.8935 0.731851C10.9322 0.709012 10.971 0.686263 11.0097 0.663539C11.058 0.635213 11.1061 0.606725 11.1542 0.578035C11.4365 0.412859 11.6693 0.333374 12 0.333374Z" fill="#C6D0DC"/>
<path d="M17.1555 9.04443C17.2414 9.07878 17.3138 9.11359 17.3933 9.15928C17.418 9.17346 17.4428 9.18764 17.4682 9.20225C17.495 9.2177 17.5218 9.23315 17.5486 9.2486C17.5765 9.26465 17.6044 9.28069 17.6324 9.29673C17.7041 9.33793 17.7758 9.37923 17.8474 9.42055C17.911 9.45719 17.9745 9.49377 18.0381 9.53037C18.1571 9.59898 18.2761 9.6677 18.3951 9.73646C18.5152 9.80584 18.6354 9.87513 18.7555 9.94443C18.8037 9.97221 18.8518 9.99999 18.9 10.0278C18.9238 10.0415 18.9476 10.0553 18.9722 10.0694C19.237 10.2222 19.5018 10.375 19.7666 10.5278C19.7905 10.5415 19.8143 10.5553 19.8389 10.5694C19.887 10.5972 19.9351 10.625 19.9832 10.6527C20.1041 10.7225 20.225 10.7922 20.346 10.8619C20.6 11.0082 20.8536 11.1553 21.1067 11.3033C21.2953 11.4135 21.485 11.5217 21.6748 11.6298C21.8737 11.7431 22.0714 11.8582 22.2666 11.9778C22.2345 12.0742 22.1618 12.0954 22.0764 12.1403C22.0394 12.1602 22.0025 12.1802 21.9657 12.2002C21.9459 12.211 21.9262 12.2217 21.9058 12.2327C21.8 12.2912 21.6959 12.3526 21.5916 12.4139C21.3951 12.5291 21.1979 12.6428 21 12.7555C20.7839 12.8786 20.5687 13.003 20.354 13.1285C20.1202 13.2653 19.8854 13.4005 19.6507 13.5357C19.53 13.6053 19.4094 13.6748 19.2889 13.7444C19.2407 13.7722 19.1926 13.8 19.1444 13.8278C19.1087 13.8484 19.1087 13.8484 19.0722 13.8694C18.8074 14.0222 18.5426 14.175 18.2777 14.3278C18.2539 14.3415 18.23 14.3553 18.2054 14.3695C18.1576 14.3971 18.1099 14.4246 18.0621 14.4521C17.9493 14.5171 17.8366 14.5822 17.7241 14.6477C17.671 14.6786 17.6179 14.7094 17.5647 14.7402C17.5273 14.762 17.4898 14.7838 17.4524 14.8056C17.4297 14.8188 17.407 14.832 17.3836 14.8456C17.3636 14.8572 17.3437 14.8688 17.3231 14.8807C17.2666 14.9111 17.2666 14.9111 17.1555 14.9555C17.1555 13.0049 17.1555 11.0542 17.1555 9.04443Z" fill="#9CA9B9"/>
<path d="M17.1333 14.9778C17.1333 16.9284 17.1333 18.8791 17.1333 20.8889C17.0475 20.8546 16.975 20.8197 16.8956 20.7741C16.8708 20.7599 16.8461 20.7457 16.8206 20.7311C16.7938 20.7156 16.767 20.7002 16.7403 20.6847C16.7123 20.6687 16.6844 20.6526 16.6565 20.6366C16.5847 20.5954 16.5131 20.5541 16.4414 20.5128C16.3779 20.4761 16.3143 20.4396 16.2508 20.403C16.1317 20.3343 16.0127 20.2656 15.8937 20.1969C15.7736 20.1275 15.6535 20.0582 15.5333 19.9889C15.4852 19.9611 15.437 19.9333 15.3889 19.9056C15.3651 19.8918 15.3412 19.8781 15.3167 19.8639C15.0518 19.7111 14.787 19.5583 14.5222 19.4056C14.4984 19.3918 14.4745 19.3781 14.45 19.3639C14.4019 19.3361 14.3538 19.3084 14.3056 19.2806C14.1847 19.2108 14.0638 19.1411 13.9429 19.0714C13.6889 18.9251 13.4352 18.7781 13.1822 18.63C13.0203 18.5355 12.8577 18.4423 12.6948 18.3496C12.308 18.1291 12.308 18.1291 12.15 18.0361C12.1365 18.0283 12.123 18.0205 12.1091 18.0125C12.0793 17.9948 12.0506 17.9754 12.0222 17.9556C12.0222 17.9409 12.0222 17.9262 12.0222 17.9111C12.1088 17.8611 12.1954 17.8111 12.2819 17.7611C12.295 17.7536 12.3081 17.746 12.3217 17.7382C12.4929 17.6394 12.6643 17.5409 12.8361 17.4431C13.0226 17.3367 13.2082 17.2288 13.3936 17.1204C13.63 16.9823 13.8671 16.8456 14.1043 16.709C14.1784 16.6663 14.2523 16.6236 14.3263 16.5809C14.5478 16.453 14.7694 16.3253 14.9917 16.1986C15.1781 16.0923 15.3636 15.9844 15.5489 15.8761C15.9299 15.6535 16.3125 15.4336 16.6958 15.215C16.763 15.1767 16.8302 15.1382 16.8972 15.0996C16.9119 15.0911 16.9266 15.0827 16.9417 15.074C16.9803 15.0518 17.0188 15.0295 17.0573 15.0073C17.1111 14.9778 17.1111 14.9778 17.1333 14.9778Z" fill="#9CA9B9"/>
<path d="M17.1333 3.11108C17.1333 5.06175 17.1333 7.01242 17.1333 9.02219C16.9483 8.92968 16.7703 8.83977 16.5944 8.73331C16.5522 8.70808 16.51 8.68287 16.4678 8.6577C16.446 8.64467 16.4241 8.63164 16.4016 8.61821C16.2827 8.54773 16.1629 8.4787 16.0431 8.40969C16.0064 8.3886 16.0064 8.3886 15.9691 8.36708C15.8006 8.27012 15.6318 8.17374 15.4629 8.07748C15.2927 7.98029 15.1234 7.88141 14.9542 7.78243C14.8107 7.69856 14.6667 7.61555 14.5222 7.53331C14.3321 7.42509 14.1431 7.31511 13.9542 7.20466C13.7918 7.10973 13.6286 7.01609 13.4651 6.92301C13.3178 6.83904 13.1713 6.75371 13.025 6.66803C12.8239 6.55031 12.6218 6.43468 12.4186 6.32081C12.3604 6.28815 12.3024 6.25526 12.2444 6.22219C12.2233 6.21019 12.2021 6.19819 12.1804 6.18582C12.1498 6.16808 12.1498 6.16808 12.1186 6.14997C12.1001 6.13932 12.0816 6.12866 12.0625 6.11768C12.0492 6.10817 12.0359 6.09866 12.0222 6.08886C12.0222 6.07419 12.0222 6.05953 12.0222 6.04442C12.062 6.0161 12.062 6.0161 12.1186 5.98374C12.1397 5.97157 12.1607 5.95939 12.1824 5.94685C12.2057 5.93367 12.2289 5.9205 12.2528 5.90692C12.2768 5.89312 12.3007 5.87933 12.3254 5.86511C12.3764 5.83582 12.4274 5.80659 12.4784 5.77745C12.5759 5.72171 12.6731 5.66545 12.7704 5.60922C12.8425 5.56753 12.9147 5.52593 12.9869 5.48435C13.0852 5.42769 13.1836 5.37098 13.2819 5.31421C13.5034 5.18628 13.725 5.05856 13.9472 4.93192C14.1338 4.82558 14.3193 4.71766 14.5047 4.60929C14.7411 4.47118 14.9782 4.33449 15.2155 4.19785C15.2895 4.15519 15.3634 4.11249 15.4374 4.06976C15.6589 3.94184 15.8805 3.81412 16.1028 3.68747C16.2741 3.58977 16.4449 3.49101 16.6153 3.39164C16.637 3.37895 16.6588 3.36626 16.6813 3.35318C16.8033 3.28187 16.9246 3.2095 17.0448 3.13507C17.0889 3.11108 17.0889 3.11108 17.1333 3.11108Z" fill="#C6D0DC"/>
<path d="M6.8667 3.11108C6.94436 3.14215 7.01003 3.17147 7.08172 3.21213C7.11164 3.22905 7.11164 3.22905 7.14216 3.24632C7.16355 3.25852 7.18494 3.27073 7.20698 3.28331C7.22953 3.29611 7.25208 3.30892 7.27531 3.32212C7.47955 3.43843 7.68252 3.55687 7.88536 3.67558C8.09869 3.80035 8.31295 3.92348 8.52709 4.04684C8.64773 4.11635 8.76833 4.18594 8.88892 4.25553C8.93707 4.28331 8.98522 4.31108 9.03337 4.33886C9.75559 4.75553 9.75559 4.75553 10.4778 5.17219C10.5017 5.18595 10.5255 5.1997 10.5501 5.21387C10.5981 5.24161 10.6462 5.26935 10.6943 5.2971C10.8157 5.36717 10.9372 5.43719 11.0587 5.50709C11.1787 5.57612 11.2986 5.64533 11.4184 5.7147C11.4661 5.74234 11.5139 5.76993 11.5617 5.79749C11.6311 5.8375 11.7003 5.87773 11.7695 5.91803C11.7906 5.93015 11.8117 5.94227 11.8334 5.95476C11.8525 5.96593 11.8715 5.97709 11.8912 5.9886C11.908 5.99835 11.9248 6.0081 11.9421 6.01814C11.9539 6.02681 11.9657 6.03548 11.9778 6.04442C11.9778 6.05908 11.9778 6.07375 11.9778 6.08886C11.9541 6.1024 11.9541 6.1024 11.9299 6.11621C11.5691 6.32202 11.2089 6.52866 10.8493 6.73644C10.7292 6.80582 10.6091 6.87511 10.4889 6.94442C10.4651 6.95815 10.4413 6.97189 10.4168 6.98604C10.2959 7.0558 10.175 7.12553 10.054 7.1952C9.82176 7.32903 9.58974 7.46323 9.35837 7.59858C9.15237 7.71907 8.9454 7.8378 8.73807 7.95596C8.53539 8.07149 8.3335 8.18833 8.13212 8.30612C7.87395 8.45709 7.61483 8.60641 7.35559 8.75553C7.33233 8.76892 7.30908 8.78232 7.28512 8.79612C7.21929 8.83403 7.15342 8.87187 7.08753 8.90969C7.06769 8.92113 7.04785 8.93256 7.0274 8.94434C7.0094 8.95465 6.99141 8.96496 6.97286 8.97558C6.95711 8.98463 6.94135 8.99368 6.92511 9.00301C6.88892 9.02219 6.88892 9.02219 6.8667 9.02219C6.8667 7.07153 6.8667 5.12086 6.8667 3.11108Z" fill="#9CA9B9"/>
<path d="M6.8667 14.9778C7.04245 15.0657 7.21216 15.1543 7.38059 15.2542C7.42746 15.2817 7.47433 15.3093 7.52121 15.3368C7.54518 15.3509 7.56914 15.365 7.59383 15.3795C7.71314 15.4494 7.83297 15.5185 7.95281 15.5875C7.97679 15.6013 8.00077 15.6151 8.02548 15.6294C8.07416 15.6574 8.12285 15.6855 8.17154 15.7135C8.29218 15.783 8.41277 15.8526 8.53337 15.9222C8.58151 15.95 8.62966 15.9778 8.67781 16.0056C9.35188 16.3944 10.026 16.7833 10.7 17.1722C10.7239 17.186 10.7477 17.1998 10.7723 17.2139C10.8202 17.2416 10.8681 17.2692 10.916 17.2968C11.0272 17.361 11.1384 17.4251 11.2497 17.4893C11.2886 17.5117 11.3275 17.5341 11.3664 17.5566C11.4148 17.5845 11.4632 17.6124 11.5117 17.6403C11.5559 17.6658 11.6001 17.6914 11.6443 17.717C11.6918 17.7444 11.7394 17.7714 11.7872 17.7983C11.8117 17.8121 11.8361 17.826 11.8613 17.8403C11.8836 17.8528 11.906 17.8653 11.9289 17.8782C11.9531 17.8945 11.9531 17.8945 11.9778 17.9111C11.9778 17.9258 11.9778 17.9404 11.9778 17.9556C10.1 19.0389 10.1 19.0389 10.0278 19.0806C9.97969 19.1083 9.93157 19.1361 9.88346 19.1638C9.76256 19.2336 9.64164 19.3033 9.52069 19.373C9.28843 19.5068 9.05641 19.641 8.82503 19.7764C8.6322 19.8892 8.43856 20.0005 8.24448 20.1111C8.04861 20.2228 7.8531 20.335 7.65837 20.4486C7.62624 20.4674 7.62624 20.4674 7.59347 20.4865C7.48193 20.5517 7.3707 20.6174 7.25975 20.6836C7.22583 20.7038 7.22583 20.7038 7.19121 20.7244C7.14799 20.7502 7.10483 20.7761 7.06172 20.802C7.03299 20.8192 7.03299 20.8192 7.00368 20.8366C6.98682 20.8468 6.96997 20.8569 6.9526 20.8673C6.91114 20.8889 6.91114 20.8889 6.8667 20.8889C6.8667 18.9382 6.8667 16.9876 6.8667 14.9778Z" fill="#5D6C7E"/>
<path d="M22.2889 12.0222C22.2914 12.7013 22.2934 13.3803 22.2945 14.0594C22.2947 14.1397 22.2948 14.22 22.295 14.3003C22.295 14.3243 22.295 14.3243 22.295 14.3488C22.2955 14.6071 22.2964 14.8653 22.2974 15.1236C22.2985 15.389 22.2991 15.6544 22.2993 15.9197C22.2994 16.0687 22.2998 16.2176 22.3006 16.3665C22.3014 16.5068 22.3016 16.6472 22.3014 16.7876C22.3015 16.8389 22.3017 16.8902 22.3021 16.9415C22.307 17.5616 22.307 17.5616 22.1333 17.8222C22.0558 17.8072 21.996 17.7762 21.9275 17.7376C21.8932 17.7184 21.8932 17.7184 21.8583 17.6987C21.8219 17.678 21.8219 17.678 21.7847 17.6569C21.7596 17.6428 21.7344 17.6286 21.7085 17.614C21.5573 17.5284 21.4068 17.4417 21.2574 17.3531C21.1171 17.2699 20.976 17.1884 20.8347 17.1069C20.8101 17.0928 20.7855 17.0786 20.7601 17.064C20.7097 17.0349 20.6592 17.0058 20.6087 16.9768C20.4873 16.9068 20.3658 16.8367 20.2444 16.7667C20.1963 16.7389 20.1481 16.7111 20.1 16.6833C18.6555 15.85 18.6555 15.85 18.5833 15.8083C18.5352 15.7806 18.4872 15.7529 18.4391 15.7251C18.3173 15.6549 18.1956 15.5846 18.0738 15.5143C18.0247 15.4859 17.9755 15.4575 17.9264 15.4292C17.9026 15.4154 17.8789 15.4017 17.8544 15.3876C17.7385 15.3207 17.6224 15.254 17.506 15.188C17.4735 15.1696 17.4735 15.1696 17.4403 15.1507C17.3996 15.1277 17.3589 15.1047 17.3182 15.0817C17.3002 15.0716 17.2823 15.0614 17.2639 15.0509C17.2482 15.0421 17.2326 15.0333 17.2165 15.0242C17.1777 15 17.1777 15 17.1333 14.9556C17.1478 14.9477 17.1623 14.9398 17.1773 14.9317C17.5092 14.7511 17.8398 14.568 18.1648 14.3753C18.305 14.2921 18.4462 14.2106 18.5875 14.1292C18.6121 14.115 18.6367 14.1008 18.662 14.0862C18.7125 14.0571 18.7629 14.0281 18.8134 13.999C18.9349 13.929 19.0563 13.859 19.1777 13.7889C19.2259 13.7611 19.274 13.7333 19.3222 13.7056C19.346 13.6918 19.3699 13.6781 19.3944 13.6639C19.8518 13.4 20.3092 13.1361 20.7666 12.8722C20.7905 12.8585 20.8143 12.8447 20.8389 12.8305C20.8869 12.8028 20.935 12.7751 20.9831 12.7474C21.1048 12.6771 21.2266 12.6069 21.3483 12.5365C21.4683 12.4672 21.5884 12.398 21.7084 12.3289C21.7777 12.2889 21.847 12.2488 21.9162 12.2087C21.9589 12.184 22.0017 12.1594 22.0444 12.1347C22.0641 12.1233 22.0837 12.1118 22.104 12.1001C22.1219 12.0898 22.1398 12.0795 22.1583 12.0688C22.1818 12.0553 22.1818 12.0553 22.2057 12.0414C22.2444 12.0222 22.2444 12.0222 22.2889 12.0222Z" fill="#C6D0DC"/>
<path d="M1.86665 6.17773C1.94202 6.19263 2.00023 6.22163 2.067 6.25924C2.08902 6.2716 2.11105 6.28396 2.13375 6.2967C2.16928 6.31687 2.16928 6.31687 2.20554 6.33746C2.23028 6.35141 2.25501 6.36536 2.2805 6.37974C2.49115 6.49891 2.7003 6.62062 2.9091 6.74301C3.04922 6.82512 3.18983 6.90637 3.33054 6.98746C3.36654 7.00821 3.36654 7.00821 3.40328 7.02938C3.45194 7.05742 3.5006 7.08545 3.54927 7.11349C3.66991 7.183 3.7905 7.25259 3.91109 7.32218C3.95924 7.34996 4.00739 7.37773 4.05554 7.40551C5.49998 8.23885 5.49998 8.23885 5.57226 8.28054C5.62023 8.30822 5.66819 8.33589 5.71616 8.36355C5.83933 8.4346 5.96248 8.50569 6.08557 8.57687C6.34508 8.72685 6.60484 8.87625 6.86665 9.02218C6.80966 9.06017 6.75234 9.09514 6.69321 9.12964C6.67177 9.14216 6.65033 9.15468 6.62824 9.16758C6.60516 9.18101 6.58209 9.19445 6.55832 9.20829C6.53438 9.22224 6.51045 9.23619 6.48579 9.25056C6.31638 9.34916 6.14639 9.4467 5.97604 9.54367C5.83114 9.62629 5.68699 9.71015 5.54304 9.7944C5.34878 9.90805 5.15382 10.0204 4.95832 10.1319C4.68442 10.2881 4.41116 10.4453 4.13816 10.6031C4.01806 10.6725 3.89791 10.7418 3.77776 10.8111C3.72961 10.8388 3.68147 10.8666 3.63332 10.8944C3.19998 11.1444 3.19998 11.1444 2.76665 11.3944C2.73084 11.4151 2.73084 11.4151 2.6943 11.4361C2.64659 11.4637 2.59888 11.4912 2.55116 11.5187C2.43774 11.584 2.3244 11.6495 2.2113 11.7155C2.15755 11.7468 2.10376 11.778 2.04997 11.8093C2.01177 11.8315 1.97363 11.8538 1.93549 11.8762C1.90107 11.8962 1.90107 11.8962 1.86596 11.9165C1.83551 11.9343 1.83551 11.9343 1.80445 11.9524C1.75554 11.9777 1.75554 11.9777 1.7111 11.9777C1.70856 11.2987 1.70659 10.6196 1.70542 9.9406C1.70528 9.86028 1.70514 9.77995 1.70499 9.69963C1.70496 9.68364 1.70493 9.66765 1.7049 9.65118C1.70442 9.3929 1.70355 9.13462 1.70252 8.87635C1.70148 8.61097 1.70087 8.34559 1.70064 8.08021C1.7005 7.9313 1.70016 7.7824 1.69935 7.63349C1.69859 7.49312 1.69836 7.35275 1.69853 7.21238C1.6985 7.16107 1.69828 7.10976 1.69785 7.05845C1.69293 6.43832 1.69293 6.43832 1.86665 6.17773Z" fill="#D9DFE7"/>
<path d="M1.71104 12C1.73235 12.0122 1.75366 12.0244 1.77561 12.037C1.80387 12.0531 1.83214 12.0693 1.8604 12.0854C1.87441 12.0935 1.88841 12.1015 1.90285 12.1097C2.00413 12.1677 2.10598 12.2244 2.20826 12.2806C2.41236 12.3933 2.61348 12.511 2.81469 12.6288C2.95666 12.7119 3.09907 12.7943 3.24159 12.8764C3.26559 12.8902 3.28958 12.904 3.31429 12.9183C3.36297 12.9463 3.41164 12.9744 3.46032 13.0024C3.58096 13.0719 3.70155 13.1415 3.82215 13.2111C3.8703 13.2389 3.91845 13.2667 3.96659 13.2944C4.44808 13.5722 4.92956 13.85 5.41104 14.1278C5.43489 14.1415 5.45873 14.1553 5.4833 14.1695C5.53132 14.1972 5.57934 14.2249 5.62736 14.2526C5.74967 14.3231 5.87197 14.3937 5.99429 14.4642C6.2778 14.6278 6.5612 14.7915 6.84437 14.9556C6.78895 15.0177 6.72766 15.0541 6.6554 15.0948C6.63051 15.1089 6.60563 15.123 6.58 15.1375C6.56674 15.145 6.55349 15.1524 6.53983 15.1601C6.48352 15.1918 6.42734 15.2237 6.37115 15.2555C6.34209 15.272 6.31303 15.2885 6.28395 15.3049C6.14346 15.3844 6.00358 15.465 5.86382 15.5458C5.81607 15.5734 5.76833 15.601 5.72059 15.6286C5.69703 15.6422 5.67348 15.6558 5.64921 15.6698C5.52911 15.7392 5.40896 15.8085 5.28882 15.8778C5.24067 15.9056 5.19252 15.9333 5.14437 15.9611C3.69993 16.7944 3.69993 16.7944 3.6277 16.8361C3.57958 16.8639 3.53147 16.8916 3.48336 16.9194C3.36246 16.9892 3.24154 17.0589 3.12059 17.1286C2.88007 17.2671 2.63975 17.406 2.39993 17.5458C2.36791 17.5645 2.36791 17.5645 2.33525 17.5835C2.3047 17.6013 2.3047 17.6013 2.27354 17.6195C2.25397 17.6309 2.23441 17.6423 2.21425 17.6541C2.17367 17.6781 2.13335 17.7026 2.09324 17.7274C2.06355 17.7458 2.06355 17.7458 2.03326 17.7645C2.01562 17.7756 1.99797 17.7867 1.97979 17.7981C1.93326 17.8222 1.93326 17.8222 1.86659 17.8222C1.8488 17.7853 1.83126 17.7482 1.81382 17.7111C1.80402 17.6905 1.79422 17.6699 1.78413 17.6486C1.71915 17.4879 1.70461 17.345 1.70569 17.1736C1.70566 17.1514 1.70562 17.1292 1.70558 17.1063C1.70551 17.0323 1.70575 16.9582 1.70599 16.8841C1.70601 16.8309 1.706 16.7777 1.70597 16.7244C1.70596 16.5951 1.70615 16.4658 1.70644 16.3365C1.70676 16.1859 1.70682 16.0354 1.70687 15.8848C1.70697 15.6164 1.70727 15.3479 1.70769 15.0795C1.70809 14.8188 1.70841 14.5581 1.7086 14.2974C1.70861 14.2813 1.70862 14.2652 1.70863 14.2486C1.70869 14.1679 1.70875 14.0873 1.7088 14.0066C1.70926 13.3377 1.71005 12.6689 1.71104 12Z" fill="#485462"/>
</g>
<defs>
<clipPath id="clip0_15961_2271">
<rect width="24" height="24" fill="white"/>
</clipPath>
</defs>
</svg>
