<svg width="24" height="24" viewBox="0 0 24 24" fill="none" xmlns="http://www.w3.org/2000/svg">
<path fill-rule="evenodd" clip-rule="evenodd" d="M19.8135 5.75134C20.6741 5.98133 21.3518 6.65897 21.5818 7.51952C21.9998 9.07916 21.9998 12.3334 21.9998 12.3334C21.9998 12.3334 21.9998 15.5875 21.5818 17.1472C21.3518 18.0078 20.6741 18.6854 19.8135 18.9155C18.254 19.3334 11.9998 19.3334 11.9998 19.3334C11.9998 19.3334 5.74555 19.3334 4.18589 18.9155C3.32532 18.6854 2.6476 18.0078 2.4176 17.1472C1.99976 15.5875 1.99976 12.3334 1.99976 12.3334C1.99976 12.3334 1.99976 9.07916 2.4176 7.51952C2.6476 6.65897 3.32532 5.98133 4.18589 5.75134C5.74555 5.33337 11.9998 5.33337 11.9998 5.33337C11.9998 5.33337 18.254 5.33337 19.8135 5.75134ZM10.1248 9.59418V15.6811L15.1248 12.6378L10.1248 9.59418Z" fill="#5D6C7E"/>
</svg>
